<svg width="2306" height="751" viewBox="0 0 2306 751" fill="none" xmlns="http://www.w3.org/2000/svg">
<path d="M274.826 407.736L166.281 302.271L272.516 49L377.982 299.191L274.826 407.736Z" fill="white"/>
<path d="M377.981 299.191L274.826 407.736L531.945 662.546L377.981 299.191Z" fill="#D9D9D9"/>
<path d="M16.9359 661.776L273.286 406.196L531.175 661.776L548.881 703.347L273.286 588.643L1.53955 703.347L16.9359 661.776Z" fill="#8B8B8B"/>
<path d="M274.825 407.736L166.281 302.271L18.4756 661.006L274.825 407.736Z" fill="#A0A0A0"/>
<g filter="url(#filter0_d_223_15)">
<path d="M770.732 244.996H705.232L689.232 275.996H644.482L738.982 100.496H788.482L820.982 275.996H775.732L770.732 244.996ZM765.732 212.496L755.482 147.496L721.982 212.496H765.732ZM888.808 243.496H944.808L939.058 275.996H840.308L871.308 100.496H914.058L888.808 243.496ZM1114.2 156.996C1112.53 167.163 1108.62 176.496 1102.45 184.996C1096.28 193.329 1087.87 200.079 1077.2 205.246C1066.7 210.413 1054.28 212.996 1039.95 212.996H1013.45L1002.2 275.996H959.449L990.449 100.496H1059.7C1078.03 100.496 1091.87 104.579 1101.2 112.746C1110.53 120.746 1115.2 131.663 1115.2 145.496C1115.2 149.663 1114.87 153.496 1114.2 156.996ZM1042.45 179.496C1058.45 179.496 1067.87 171.996 1070.7 156.996C1071.03 154.329 1071.2 152.413 1071.2 151.246C1071.2 145.913 1069.45 141.829 1065.95 138.996C1062.62 135.996 1057.45 134.496 1050.45 134.496H1027.2L1019.45 179.496H1042.45ZM1298.45 100.496L1267.45 275.996H1224.7L1237.45 203.246H1170.95L1158.2 275.996H1115.45L1146.45 100.496H1189.2L1176.95 169.496H1243.45L1255.7 100.496H1298.45ZM1413.07 244.996H1347.57L1331.57 275.996H1286.82L1381.32 100.496H1430.82L1463.32 275.996H1418.07L1413.07 244.996ZM1408.07 212.496L1397.82 147.496L1364.32 212.496H1408.07ZM1697.75 100.496L1692 134.246H1645.25L1620.25 275.996H1577.5L1602.5 134.246H1556L1562 100.496H1697.75ZM1755.96 134.246L1749.71 170.746H1806.96L1801.21 202.996H1743.96L1736.96 242.246H1801.71L1795.71 275.996H1688.21L1719.21 100.496H1826.71L1820.71 134.246H1755.96ZM1938.21 244.996H1872.71L1856.71 275.996H1811.96L1906.46 100.496H1955.96L1988.46 275.996H1943.21L1938.21 244.996ZM1933.21 212.496L1922.96 147.496L1889.46 212.496H1933.21ZM2237.54 100.496L2206.54 275.996H2163.79L2182.54 170.746L2124.54 275.996H2090.04L2069.04 170.246L2050.54 275.996H2007.79L2038.79 100.496H2089.29L2117.29 221.996L2187.29 100.496H2237.54ZM798.881 562.996C801.881 545.663 808.298 530.246 818.131 516.746C828.131 503.079 840.465 492.496 855.131 484.996C869.798 477.329 885.631 473.496 902.631 473.496C923.465 473.496 940.298 478.996 953.131 489.996C966.131 500.996 973.465 515.996 975.131 534.996H928.131C925.965 527.829 921.965 522.413 916.131 518.746C910.465 514.913 903.465 512.996 895.131 512.996C881.965 512.996 870.548 517.579 860.881 526.746C851.215 535.746 845.048 547.829 842.381 562.996C841.548 567.663 841.131 571.746 841.131 575.246C841.131 586.913 844.381 596.163 850.881 602.996C857.381 609.829 866.298 613.246 877.631 613.246C885.798 613.246 893.381 611.329 900.381 607.496C907.548 603.663 913.548 598.163 918.381 590.996H965.381C957.048 609.996 944.465 624.996 927.631 635.996C910.798 646.829 891.965 652.246 871.131 652.246C856.131 652.246 843.048 649.329 831.881 643.496C820.715 637.663 812.131 629.413 806.131 618.746C800.131 608.079 797.131 595.663 797.131 581.496C797.131 575.163 797.715 568.996 798.881 562.996ZM1064.31 652.746C1049.48 652.746 1036.39 649.663 1025.06 643.496C1013.89 637.329 1005.23 628.663 999.061 617.496C992.894 606.329 989.811 593.496 989.811 578.996C989.811 558.496 994.228 540.246 1003.06 524.246C1011.89 508.079 1024.14 495.496 1039.81 486.496C1055.64 477.496 1073.56 472.996 1093.56 472.996C1108.56 472.996 1121.73 476.079 1133.06 482.246C1144.39 488.246 1153.14 496.829 1159.31 507.996C1165.48 518.996 1168.56 531.663 1168.56 545.996C1168.56 566.496 1164.14 584.913 1155.31 601.246C1146.48 617.413 1134.14 630.079 1118.31 639.246C1102.48 648.246 1084.48 652.746 1064.31 652.746ZM1070.81 613.246C1081.81 613.246 1091.48 610.413 1099.81 604.746C1108.14 599.079 1114.56 591.496 1119.06 581.996C1123.73 572.329 1126.06 561.913 1126.06 550.746C1126.06 538.746 1122.73 529.329 1116.06 522.496C1109.39 515.663 1100.06 512.246 1088.06 512.246C1077.06 512.246 1067.31 515.079 1058.81 520.746C1050.48 526.413 1043.98 533.996 1039.31 543.496C1034.81 552.829 1032.56 563.163 1032.56 574.496C1032.56 586.496 1035.89 595.996 1042.56 602.996C1049.23 609.829 1058.64 613.246 1070.81 613.246ZM1407.09 475.496L1376.09 650.996H1333.34L1352.09 545.746L1294.09 650.996H1259.59L1238.59 545.246L1220.09 650.996H1177.34L1208.34 475.496H1258.84L1286.84 596.996L1356.84 475.496H1407.09ZM1561.59 531.996C1559.92 542.163 1556 551.496 1549.84 559.996C1543.67 568.329 1535.25 575.079 1524.59 580.246C1514.09 585.413 1501.67 587.996 1487.34 587.996H1460.84L1449.59 650.996H1406.84L1437.84 475.496H1507.09C1525.42 475.496 1539.25 479.579 1548.59 487.746C1557.92 495.746 1562.59 506.663 1562.59 520.496C1562.59 524.663 1562.25 528.496 1561.59 531.996ZM1489.84 554.496C1505.84 554.496 1515.25 546.996 1518.09 531.996C1518.42 529.329 1518.59 527.413 1518.59 526.246C1518.59 520.913 1516.84 516.829 1513.34 513.996C1510 510.996 1504.84 509.496 1497.84 509.496H1474.59L1466.84 554.496H1489.84ZM1677.59 619.996H1612.09L1596.09 650.996H1551.34L1645.84 475.496H1695.34L1727.84 650.996H1682.59L1677.59 619.996ZM1672.59 587.496L1662.34 522.496L1628.84 587.496H1672.59ZM1904.17 650.996H1861.42L1809.17 542.746L1789.92 650.996H1747.17L1778.17 475.496H1820.92L1873.17 584.246L1892.42 475.496H1935.17L1904.17 650.996ZM2116.66 475.496L2035.41 592.996L2024.91 650.996H1982.16L1992.66 592.996L1952.41 475.496H2000.91L2021.91 548.746L2068.66 475.496H2116.66Z" fill="url(#paint0_linear_223_15)"/>
</g>
<defs>
<filter id="filter0_d_223_15" x="572.482" y="44.4961" width="1733.06" height="692.25" filterUnits="userSpaceOnUse" color-interpolation-filters="sRGB">
<feFlood flood-opacity="0" result="BackgroundImageFix"/>
<feColorMatrix in="SourceAlpha" type="matrix" values="0 0 0 0 0 0 0 0 0 0 0 0 0 0 0 0 0 0 127 0" result="hardAlpha"/>
<feOffset dx="-2" dy="14"/>
<feGaussianBlur stdDeviation="35"/>
<feComposite in2="hardAlpha" operator="out"/>
<feColorMatrix type="matrix" values="0 0 0 0 0 0 0 0 0 0 0 0 0 0 0 0 0 0 0.2 0"/>
<feBlend mode="normal" in2="BackgroundImageFix" result="effect1_dropShadow_223_15"/>
<feBlend mode="normal" in="SourceGraphic" in2="effect1_dropShadow_223_15" result="shape"/>
</filter>
<linearGradient id="paint0_linear_223_15" x1="402.829" y1="-121.504" x2="2447.96" y2="755.575" gradientUnits="userSpaceOnUse">
<stop stop-color="white"/>
<stop offset="0.477081" stop-color="#F2F2F2"/>
<stop offset="1" stop-color="white"/>
</linearGradient>
</defs>
</svg>
