<svg width="199" height="86" viewBox="0 0 199 86" fill="none" xmlns="http://www.w3.org/2000/svg">
<path d="M99.5323 30.3465L90.4151 21.5509L99.3384 0.428574L108.197 21.2941L99.5323 30.3465Z" fill="#818181"/>
<path d="M78.0001 51.5973L99.403 30.2181L121.065 51.5331L122.552 55L99.403 45.4339L76.5776 55L78.0001 51.5973Z" fill="black"/>
<path d="M108.197 21.2941L99.5323 30.3465L122.552 55L108.197 21.2941Z" fill="#717171"/>
<path d="M99.5323 30.3466L90.4151 21.5509L76.5776 55L99.5323 30.3466Z" fill="#555555"/>
<path d="M6.20553 71.5244L2.59469 82H0.411583L4.96041 69.9141H6.35494L6.20553 71.5244ZM9.22701 82L5.60787 71.5244L5.45016 69.9141H6.85299L11.4184 82H9.22701ZM9.0527 77.5176V79.1694H2.47848V77.5176H9.0527ZM20.8518 80.3481V82H14.7839V80.3481H20.8518ZM15.3649 69.9141V82H13.2814V69.9141H15.3649ZM27.5624 77.4927H24.4164V75.8408H27.5624C28.1103 75.8408 28.553 75.7523 28.8906 75.5752C29.2281 75.3981 29.4744 75.1546 29.6293 74.8447C29.7898 74.5293 29.8701 74.1696 29.8701 73.7656C29.8701 73.3838 29.7898 73.0269 29.6293 72.6948C29.4744 72.3573 29.2281 72.0861 28.8906 71.8813C28.553 71.6766 28.1103 71.5742 27.5624 71.5742H25.0556V82H22.9721V69.9141H27.5624C28.4977 69.9141 29.2918 70.0801 29.9448 70.4121C30.6033 70.7386 31.1041 71.1924 31.4472 71.7734C31.7903 72.349 31.9619 73.0075 31.9619 73.749C31.9619 74.5293 31.7903 75.1989 31.4472 75.7578C31.1041 76.3167 30.6033 76.7456 29.9448 77.0444C29.2918 77.3433 28.4977 77.4927 27.5624 77.4927ZM42.3249 74.9609V76.6128H35.9084V74.9609H42.3249ZM36.423 69.9141V82H34.3395V69.9141H36.423ZM43.9269 69.9141V82H41.8517V69.9141H43.9269ZM51.7748 71.5244L48.164 82H45.9809L50.5297 69.9141H51.9242L51.7748 71.5244ZM54.7963 82L51.1772 71.5244L51.0195 69.9141H52.4223L56.9877 82H54.7963ZM54.622 77.5176V79.1694H48.0478V77.5176H54.622ZM68.1679 69.9141V82H66.101V69.9141H68.1679ZM71.9613 69.9141V71.5742H62.3407V69.9141H71.9613ZM81.9757 80.3481V82H75.5592V80.3481H81.9757ZM76.1486 69.9141V82H74.0651V69.9141H76.1486ZM81.1373 74.9609V76.5879H75.5592V74.9609H81.1373ZM81.9342 69.9141V71.5742H75.5592V69.9141H81.9342ZM88.8939 71.5244L85.2831 82H83.1L87.6488 69.9141H89.0433L88.8939 71.5244ZM91.9154 82L88.2963 71.5244L88.1386 69.9141H89.5414L94.1068 82H91.9154ZM91.7411 77.5176V79.1694H85.1669V77.5176H91.7411ZM96.8165 69.9141H98.6759L102.171 79.2358L105.657 69.9141H107.516L102.901 82H101.423L96.8165 69.9141ZM95.9698 69.9141H97.7379L98.045 77.9824V82H95.9698V69.9141ZM106.595 69.9141H108.371V82H106.288V77.9824L106.595 69.9141ZM123.237 78.0654H125.312C125.246 78.8568 125.024 79.5623 124.648 80.1821C124.272 80.7964 123.743 81.2806 123.063 81.6348C122.382 81.9889 121.555 82.166 120.581 82.166C119.834 82.166 119.161 82.0332 118.564 81.7676C117.966 81.4964 117.454 81.1146 117.028 80.6221C116.602 80.124 116.275 79.5236 116.048 78.8208C115.827 78.118 115.716 77.3322 115.716 76.4634V75.459C115.716 74.5902 115.83 73.8044 116.057 73.1016C116.289 72.3988 116.621 71.7983 117.053 71.3003C117.484 70.7967 118.002 70.4121 118.605 70.1465C119.214 69.8809 119.897 69.748 120.655 69.748C121.618 69.748 122.432 69.9251 123.096 70.2793C123.76 70.6335 124.275 71.1232 124.64 71.7485C125.011 72.3739 125.237 73.0905 125.32 73.8984H123.245C123.19 73.3783 123.068 72.9328 122.88 72.562C122.697 72.1912 122.426 71.909 122.067 71.7153C121.707 71.5161 121.236 71.4165 120.655 71.4165C120.179 71.4165 119.764 71.505 119.41 71.6821C119.056 71.8592 118.76 72.1193 118.522 72.4624C118.284 72.8055 118.104 73.2288 117.983 73.7324C117.866 74.2305 117.808 74.8005 117.808 75.4424V76.4634C117.808 77.0721 117.861 77.6255 117.966 78.1235C118.077 78.616 118.243 79.0394 118.464 79.3936C118.691 79.7477 118.979 80.0216 119.327 80.2153C119.676 80.409 120.094 80.5059 120.581 80.5059C121.173 80.5059 121.651 80.4118 122.017 80.2236C122.387 80.0355 122.667 79.7616 122.855 79.4019C123.049 79.0366 123.176 78.5911 123.237 78.0654ZM137.352 75.625V76.2891C137.352 77.2021 137.233 78.0212 136.995 78.7461C136.757 79.471 136.417 80.0881 135.974 80.5972C135.537 81.1063 135.011 81.4964 134.397 81.7676C133.783 82.0332 133.102 82.166 132.355 82.166C131.613 82.166 130.935 82.0332 130.321 81.7676C129.712 81.4964 129.184 81.1063 128.736 80.5972C128.287 80.0881 127.939 79.471 127.69 78.7461C127.446 78.0212 127.325 77.2021 127.325 76.2891V75.625C127.325 74.7119 127.446 73.8957 127.69 73.1763C127.933 72.4513 128.276 71.8343 128.719 71.3252C129.167 70.8105 129.696 70.4204 130.305 70.1548C130.919 69.8836 131.597 69.748 132.338 69.748C133.085 69.748 133.766 69.8836 134.38 70.1548C134.994 70.4204 135.523 70.8105 135.966 71.3252C136.408 71.8343 136.749 72.4513 136.987 73.1763C137.23 73.8957 137.352 74.7119 137.352 75.625ZM135.268 76.2891V75.6084C135.268 74.9333 135.202 74.3384 135.069 73.8237C134.942 73.3035 134.751 72.8691 134.496 72.5205C134.247 72.1663 133.94 71.9007 133.575 71.7236C133.21 71.541 132.798 71.4497 132.338 71.4497C131.879 71.4497 131.469 71.541 131.11 71.7236C130.75 71.9007 130.443 72.1663 130.188 72.5205C129.939 72.8691 129.748 73.3035 129.616 73.8237C129.483 74.3384 129.416 74.9333 129.416 75.6084V76.2891C129.416 76.9642 129.483 77.5618 129.616 78.082C129.748 78.6022 129.942 79.0422 130.197 79.4019C130.457 79.756 130.767 80.0244 131.126 80.207C131.486 80.3841 131.896 80.4727 132.355 80.4727C132.82 80.4727 133.232 80.3841 133.592 80.207C133.951 80.0244 134.256 79.756 134.505 79.4019C134.754 79.0422 134.942 78.6022 135.069 78.082C135.202 77.5618 135.268 76.9642 135.268 76.2891ZM140.792 69.9141H142.651L146.146 79.2358L149.632 69.9141H151.492L146.877 82H145.399L140.792 69.9141ZM139.945 69.9141H141.713L142.021 77.9824V82H139.945V69.9141ZM150.57 69.9141H152.347V82H150.263V77.9824L150.57 69.9141ZM159.921 77.4927H156.775V75.8408H159.921C160.469 75.8408 160.911 75.7523 161.249 75.5752C161.586 75.3981 161.833 75.1546 161.988 74.8447C162.148 74.5293 162.228 74.1696 162.228 73.7656C162.228 73.3838 162.148 73.0269 161.988 72.6948C161.833 72.3573 161.586 72.0861 161.249 71.8813C160.911 71.6766 160.469 71.5742 159.921 71.5742H157.414V82H155.33V69.9141H159.921C160.856 69.9141 161.65 70.0801 162.303 70.4121C162.962 70.7386 163.462 71.1924 163.805 71.7734C164.149 72.349 164.32 73.0075 164.32 73.749C164.32 74.5293 164.149 75.1989 163.805 75.7578C163.462 76.3167 162.962 76.7456 162.303 77.0444C161.65 77.3433 160.856 77.4927 159.921 77.4927ZM170.143 71.5244L166.532 82H164.349L168.898 69.9141H170.292L170.143 71.5244ZM173.164 82L169.545 71.5244L169.387 69.9141H170.79L175.356 82H173.164ZM172.99 77.5176V79.1694H166.416V77.5176H172.99ZM186.806 69.9141V82H184.722L179.302 73.3423V82H177.219V69.9141H179.302L184.739 78.5884V69.9141H186.806ZM190.719 69.9141L193.525 75.6831L196.331 69.9141H198.638L194.571 77.5508V82H192.471V77.5508L188.403 69.9141H190.719Z" fill="black"/>
</svg>
