<svg width="2665" height="1162" viewBox="0 0 2665 1162" fill="none" xmlns="http://www.w3.org/2000/svg">
<g filter="url(#filter0_d_10_0)">
<path d="M1129.85 456H1064.35L1048.35 487H1003.6L1098.1 311.5H1147.6L1180.1 487H1134.85L1129.85 456ZM1124.85 423.5L1114.6 358.5L1081.1 423.5H1124.85ZM1247.93 454.5H1303.93L1298.18 487H1199.43L1230.43 311.5H1273.18L1247.93 454.5ZM1473.32 368C1471.65 378.167 1467.73 387.5 1461.57 396C1455.4 404.333 1446.98 411.083 1436.32 416.25C1425.82 421.417 1413.4 424 1399.07 424H1372.57L1361.32 487H1318.57L1349.57 311.5H1418.82C1437.15 311.5 1450.98 315.583 1460.32 323.75C1469.65 331.75 1474.32 342.667 1474.32 356.5C1474.32 360.667 1473.98 364.5 1473.32 368ZM1401.57 390.5C1417.57 390.5 1426.98 383 1429.82 368C1430.15 365.333 1430.32 363.417 1430.32 362.25C1430.32 356.917 1428.57 352.833 1425.07 350C1421.73 347 1416.57 345.5 1409.57 345.5H1386.32L1378.57 390.5H1401.57ZM1657.57 311.5L1626.57 487H1583.82L1596.57 414.25H1530.07L1517.32 487H1474.57L1505.57 311.5H1548.32L1536.07 380.5H1602.57L1614.82 311.5H1657.57ZM1772.18 456H1706.68L1690.68 487H1645.93L1740.43 311.5H1789.93L1822.43 487H1777.18L1772.18 456ZM1767.18 423.5L1756.93 358.5L1723.43 423.5H1767.18ZM2056.87 311.5L2051.12 345.25H2004.37L1979.37 487H1936.62L1961.62 345.25H1915.12L1921.12 311.5H2056.87ZM2115.08 345.25L2108.83 381.75H2166.08L2160.33 414H2103.08L2096.08 453.25H2160.83L2154.83 487H2047.33L2078.33 311.5H2185.83L2179.83 345.25H2115.08ZM2297.33 456H2231.83L2215.83 487H2171.08L2265.58 311.5H2315.08L2347.58 487H2302.33L2297.33 456ZM2292.33 423.5L2282.08 358.5L2248.58 423.5H2292.33ZM2596.66 311.5L2565.66 487H2522.91L2541.66 381.75L2483.66 487H2449.16L2428.16 381.25L2409.66 487H2366.91L2397.91 311.5H2448.41L2476.41 433L2546.41 311.5H2596.66ZM1158 774C1161 756.667 1167.42 741.25 1177.25 727.75C1187.25 714.083 1199.58 703.5 1214.25 696C1228.92 688.333 1244.75 684.5 1261.75 684.5C1282.58 684.5 1299.42 690 1312.25 701C1325.25 712 1332.58 727 1334.25 746H1287.25C1285.08 738.833 1281.08 733.417 1275.25 729.75C1269.58 725.917 1262.58 724 1254.25 724C1241.08 724 1229.67 728.583 1220 737.75C1210.33 746.75 1204.17 758.833 1201.5 774C1200.67 778.667 1200.25 782.75 1200.25 786.25C1200.25 797.917 1203.5 807.167 1210 814C1216.5 820.833 1225.42 824.25 1236.75 824.25C1244.92 824.25 1252.5 822.333 1259.5 818.5C1266.67 814.667 1272.67 809.167 1277.5 802H1324.5C1316.17 821 1303.58 836 1286.75 847C1269.92 857.833 1251.08 863.25 1230.25 863.25C1215.25 863.25 1202.17 860.333 1191 854.5C1179.83 848.667 1171.25 840.417 1165.25 829.75C1159.25 819.083 1156.25 806.667 1156.25 792.5C1156.25 786.167 1156.83 780 1158 774ZM1423.43 863.75C1408.6 863.75 1395.51 860.667 1384.18 854.5C1373.01 848.333 1364.35 839.667 1358.18 828.5C1352.01 817.333 1348.93 804.5 1348.93 790C1348.93 769.5 1353.35 751.25 1362.18 735.25C1371.01 719.083 1383.26 706.5 1398.93 697.5C1414.76 688.5 1432.68 684 1452.68 684C1467.68 684 1480.85 687.083 1492.18 693.25C1503.51 699.25 1512.26 707.833 1518.43 719C1524.6 730 1527.68 742.667 1527.68 757C1527.68 777.5 1523.26 795.917 1514.43 812.25C1505.6 828.417 1493.26 841.083 1477.43 850.25C1461.6 859.25 1443.6 863.75 1423.43 863.75ZM1429.93 824.25C1440.93 824.25 1450.6 821.417 1458.93 815.75C1467.26 810.083 1473.68 802.5 1478.18 793C1482.85 783.333 1485.18 772.917 1485.18 761.75C1485.18 749.75 1481.85 740.333 1475.18 733.5C1468.51 726.667 1459.18 723.25 1447.18 723.25C1436.18 723.25 1426.43 726.083 1417.93 731.75C1409.6 737.417 1403.1 745 1398.43 754.5C1393.93 763.833 1391.68 774.167 1391.68 785.5C1391.68 797.5 1395.01 807 1401.68 814C1408.35 820.833 1417.76 824.25 1429.93 824.25ZM1766.21 686.5L1735.21 862H1692.46L1711.21 756.75L1653.21 862H1618.71L1597.71 756.25L1579.21 862H1536.46L1567.46 686.5H1617.96L1645.96 808L1715.96 686.5H1766.21ZM1920.71 743C1919.04 753.167 1915.12 762.5 1908.96 771C1902.79 779.333 1894.37 786.083 1883.71 791.25C1873.21 796.417 1860.79 799 1846.46 799H1819.96L1808.71 862H1765.96L1796.96 686.5H1866.21C1884.54 686.5 1898.37 690.583 1907.71 698.75C1917.04 706.75 1921.71 717.667 1921.71 731.5C1921.71 735.667 1921.37 739.5 1920.71 743ZM1848.96 765.5C1864.96 765.5 1874.37 758 1877.21 743C1877.54 740.333 1877.71 738.417 1877.71 737.25C1877.71 731.917 1875.96 727.833 1872.46 725C1869.12 722 1863.96 720.5 1856.96 720.5H1833.71L1825.96 765.5H1848.96ZM2036.71 831H1971.21L1955.21 862H1910.46L2004.96 686.5H2054.46L2086.96 862H2041.71L2036.71 831ZM2031.71 798.5L2021.46 733.5L1987.96 798.5H2031.71ZM2263.29 862H2220.54L2168.29 753.75L2149.04 862H2106.29L2137.29 686.5H2180.04L2232.29 795.25L2251.54 686.5H2294.29L2263.29 862ZM2475.78 686.5L2394.53 804L2384.03 862H2341.28L2351.78 804L2311.53 686.5H2360.03L2381.03 759.75L2427.78 686.5H2475.78Z" fill="url(#paint0_linear_10_0)"/>
<path d="M1129.85 456L1130.84 455.841L1130.7 455H1129.85V456ZM1064.35 456V455H1063.74L1063.46 455.541L1064.35 456ZM1048.35 487V488H1048.96L1049.24 487.459L1048.35 487ZM1003.6 487L1002.72 486.526L1001.93 488H1003.6V487ZM1098.1 311.5V310.5H1097.5L1097.22 311.026L1098.1 311.5ZM1147.6 311.5L1148.58 311.318L1148.43 310.5H1147.6V311.5ZM1180.1 487V488H1181.3L1181.08 486.818L1180.1 487ZM1134.85 487L1133.86 487.159L1134 488H1134.85V487ZM1124.85 423.5V424.5H1126.02L1125.84 423.344L1124.85 423.5ZM1114.6 358.5L1115.59 358.344L1115.11 355.325L1113.71 358.042L1114.6 358.5ZM1081.1 423.5L1080.21 423.042L1079.46 424.5H1081.1V423.5ZM1129.85 455H1064.35V457H1129.85V455ZM1063.46 455.541L1047.46 486.541L1049.24 487.459L1065.24 456.459L1063.46 455.541ZM1048.35 486H1003.6V488H1048.35V486ZM1004.48 487.474L1098.98 311.974L1097.22 311.026L1002.72 486.526L1004.48 487.474ZM1098.1 312.5H1147.6V310.5H1098.1V312.5ZM1146.62 311.682L1179.12 487.182L1181.08 486.818L1148.58 311.318L1146.62 311.682ZM1180.1 486H1134.85V488H1180.1V486ZM1135.84 486.841L1130.84 455.841L1128.86 456.159L1133.86 487.159L1135.84 486.841ZM1125.84 423.344L1115.59 358.344L1113.61 358.656L1123.86 423.656L1125.84 423.344ZM1113.71 358.042L1080.21 423.042L1081.99 423.958L1115.49 358.958L1113.71 358.042ZM1081.1 424.5H1124.85V422.5H1081.1V424.5ZM1247.93 454.5L1246.94 454.326L1246.73 455.5H1247.93V454.5ZM1303.93 454.5L1304.91 454.674L1305.12 453.5H1303.93V454.5ZM1298.18 487V488H1299.02L1299.16 487.174L1298.18 487ZM1199.43 487L1198.44 486.826L1198.23 488H1199.43V487ZM1230.43 311.5V310.5H1229.59L1229.44 311.326L1230.43 311.5ZM1273.18 311.5L1274.16 311.674L1274.37 310.5H1273.18V311.5ZM1247.93 455.5H1303.93V453.5H1247.93V455.5ZM1302.94 454.326L1297.19 486.826L1299.16 487.174L1304.91 454.674L1302.94 454.326ZM1298.18 486H1199.43V488H1298.18V486ZM1200.41 487.174L1231.41 311.674L1229.44 311.326L1198.44 486.826L1200.41 487.174ZM1230.43 312.5H1273.18V310.5H1230.43V312.5ZM1272.19 311.326L1246.94 454.326L1248.91 454.674L1274.16 311.674L1272.19 311.326ZM1473.32 368L1472.34 367.813L1472.33 367.826L1472.33 367.838L1473.32 368ZM1461.57 396L1462.37 396.595L1462.38 396.587L1461.57 396ZM1436.32 416.25L1435.88 415.35L1435.88 415.353L1436.32 416.25ZM1372.57 424V423H1371.73L1371.58 423.824L1372.57 424ZM1361.32 487V488H1362.15L1362.3 487.176L1361.32 487ZM1318.57 487L1317.58 486.826L1317.38 488H1318.57V487ZM1349.57 311.5V310.5H1348.73L1348.58 311.326L1349.57 311.5ZM1460.32 323.75L1459.66 324.503L1459.67 324.509L1460.32 323.75ZM1429.82 368L1430.8 368.186L1430.81 368.155L1430.81 368.124L1429.82 368ZM1425.07 350L1424.4 350.743L1424.42 350.761L1424.44 350.777L1425.07 350ZM1386.32 345.5V344.5H1385.47L1385.33 345.33L1386.32 345.5ZM1378.57 390.5L1377.58 390.33L1377.38 391.5H1378.57V390.5ZM1472.33 367.838C1470.69 377.848 1466.83 387.036 1460.76 395.413L1462.38 396.587C1468.63 387.964 1472.61 378.485 1474.3 368.162L1472.33 367.838ZM1460.76 395.405C1454.71 403.591 1446.42 410.244 1435.88 415.35L1436.75 417.15C1447.54 411.923 1456.1 405.076 1462.37 396.595L1460.76 395.405ZM1435.88 415.353C1425.54 420.438 1413.28 423 1399.07 423V425C1413.52 425 1426.09 422.395 1436.76 417.147L1435.88 415.353ZM1399.07 423H1372.57V425H1399.07V423ZM1371.58 423.824L1360.33 486.824L1362.3 487.176L1373.55 424.176L1371.58 423.824ZM1361.32 486H1318.57V488H1361.32V486ZM1319.55 487.174L1350.55 311.674L1348.58 311.326L1317.58 486.826L1319.55 487.174ZM1349.57 312.5H1418.82V310.5H1349.57V312.5ZM1418.82 312.5C1437.02 312.5 1450.58 316.557 1459.66 324.503L1460.98 322.997C1451.39 314.61 1437.28 310.5 1418.82 310.5V312.5ZM1459.67 324.509C1468.75 332.294 1473.32 342.918 1473.32 356.5H1475.32C1475.32 342.416 1470.55 331.206 1460.97 322.991L1459.67 324.509ZM1473.32 356.5C1473.32 360.614 1472.99 364.384 1472.34 367.813L1474.3 368.187C1474.98 364.616 1475.32 360.719 1475.32 356.5H1473.32ZM1401.57 391.5C1409.72 391.5 1416.32 389.589 1421.25 385.657C1426.19 381.721 1429.35 375.856 1430.8 368.186L1428.83 367.814C1427.45 375.144 1424.48 380.529 1420.01 384.093C1415.53 387.661 1409.42 389.5 1401.57 389.5V391.5ZM1430.81 368.124C1431.14 365.455 1431.32 363.484 1431.32 362.25H1429.32C1429.32 363.349 1429.16 365.211 1428.83 367.876L1430.81 368.124ZM1431.32 362.25C1431.32 356.677 1429.48 352.282 1425.7 349.223L1424.44 350.777C1427.66 353.385 1429.32 357.156 1429.32 362.25H1431.32ZM1425.74 349.257C1422.14 346.02 1416.68 344.5 1409.57 344.5V346.5C1416.45 346.5 1421.33 347.98 1424.4 350.743L1425.74 349.257ZM1409.57 344.5H1386.32V346.5H1409.57V344.5ZM1385.33 345.33L1377.58 390.33L1379.55 390.67L1387.3 345.67L1385.33 345.33ZM1378.57 391.5H1401.57V389.5H1378.57V391.5ZM1657.57 311.5L1658.56 311.674L1658.77 310.5H1657.57V311.5ZM1626.57 487V488H1627.41L1627.56 487.174L1626.57 487ZM1583.82 487L1582.84 486.827L1582.63 488H1583.82V487ZM1596.57 414.25L1597.56 414.423L1597.76 413.25H1596.57V414.25ZM1530.07 414.25V413.25H1529.23L1529.09 414.077L1530.07 414.25ZM1517.32 487V488H1518.16L1518.31 487.173L1517.32 487ZM1474.57 487L1473.59 486.826L1473.38 488H1474.57V487ZM1505.57 311.5V310.5H1504.73L1504.59 311.326L1505.57 311.5ZM1548.32 311.5L1549.31 311.675L1549.52 310.5H1548.32V311.5ZM1536.07 380.5L1535.09 380.325L1534.88 381.5H1536.07V380.5ZM1602.57 380.5V381.5H1603.41L1603.56 380.675L1602.57 380.5ZM1614.82 311.5V310.5H1613.99L1613.84 311.325L1614.82 311.5ZM1656.59 311.326L1625.59 486.826L1627.56 487.174L1658.56 311.674L1656.59 311.326ZM1626.57 486H1583.82V488H1626.57V486ZM1584.81 487.173L1597.56 414.423L1595.59 414.077L1582.84 486.827L1584.81 487.173ZM1596.57 413.25H1530.07V415.25H1596.57V413.25ZM1529.09 414.077L1516.34 486.827L1518.31 487.173L1531.06 414.423L1529.09 414.077ZM1517.32 486H1474.57V488H1517.32V486ZM1475.56 487.174L1506.56 311.674L1504.59 311.326L1473.59 486.826L1475.56 487.174ZM1505.57 312.5H1548.32V310.5H1505.57V312.5ZM1547.34 311.325L1535.09 380.325L1537.06 380.675L1549.31 311.675L1547.34 311.325ZM1536.07 381.5H1602.57V379.5H1536.07V381.5ZM1603.56 380.675L1615.81 311.675L1613.84 311.325L1601.59 380.325L1603.56 380.675ZM1614.82 312.5H1657.57V310.5H1614.82V312.5ZM1772.18 456L1773.17 455.841L1773.04 455H1772.18V456ZM1706.68 456V455H1706.08L1705.8 455.541L1706.68 456ZM1690.68 487V488H1691.29L1691.57 487.459L1690.68 487ZM1645.93 487L1645.05 486.526L1644.26 488H1645.93V487ZM1740.43 311.5V310.5H1739.84L1739.55 311.026L1740.43 311.5ZM1789.93 311.5L1790.92 311.318L1790.77 310.5H1789.93V311.5ZM1822.43 487V488H1823.64L1823.42 486.818L1822.43 487ZM1777.18 487L1776.2 487.159L1776.33 488H1777.18V487ZM1767.18 423.5V424.5H1768.35L1768.17 423.344L1767.18 423.5ZM1756.93 358.5L1757.92 358.344L1757.45 355.325L1756.05 358.042L1756.93 358.5ZM1723.43 423.5L1722.55 423.042L1721.79 424.5H1723.43V423.5ZM1772.18 455H1706.68V457H1772.18V455ZM1705.8 455.541L1689.8 486.541L1691.57 487.459L1707.57 456.459L1705.8 455.541ZM1690.68 486H1645.93V488H1690.68V486ZM1646.82 487.474L1741.32 311.974L1739.55 311.026L1645.05 486.526L1646.82 487.474ZM1740.43 312.5H1789.93V310.5H1740.43V312.5ZM1788.95 311.682L1821.45 487.182L1823.42 486.818L1790.92 311.318L1788.95 311.682ZM1822.43 486H1777.18V488H1822.43V486ZM1778.17 486.841L1773.17 455.841L1771.2 456.159L1776.2 487.159L1778.17 486.841ZM1768.17 423.344L1757.92 358.344L1755.95 358.656L1766.2 423.656L1768.17 423.344ZM1756.05 358.042L1722.55 423.042L1724.32 423.958L1757.82 358.958L1756.05 358.042ZM1723.43 424.5H1767.18V422.5H1723.43V424.5ZM2056.87 311.5L2057.86 311.668L2058.06 310.5H2056.87V311.5ZM2051.12 345.25V346.25H2051.97L2052.11 345.418L2051.12 345.25ZM2004.37 345.25V344.25H2003.53L2003.39 345.076L2004.37 345.25ZM1979.37 487V488H1980.21L1980.36 487.174L1979.37 487ZM1936.62 487L1935.64 486.826L1935.43 488H1936.62V487ZM1961.62 345.25L1962.61 345.424L1962.81 344.25H1961.62V345.25ZM1915.12 345.25L1914.14 345.075L1913.93 346.25H1915.12V345.25ZM1921.12 311.5V310.5H1920.28L1920.14 311.325L1921.12 311.5ZM2055.89 311.332L2050.14 345.082L2052.11 345.418L2057.86 311.668L2055.89 311.332ZM2051.12 344.25H2004.37V346.25H2051.12V344.25ZM2003.39 345.076L1978.39 486.826L1980.36 487.174L2005.36 345.424L2003.39 345.076ZM1979.37 486H1936.62V488H1979.37V486ZM1937.61 487.174L1962.61 345.424L1960.64 345.076L1935.64 486.826L1937.61 487.174ZM1961.62 344.25H1915.12V346.25H1961.62V344.25ZM1916.11 345.425L1922.11 311.675L1920.14 311.325L1914.14 345.075L1916.11 345.425ZM1921.12 312.5H2056.87V310.5H1921.12V312.5ZM2115.08 345.25V344.25H2114.23L2114.09 345.081L2115.08 345.25ZM2108.83 381.75L2107.84 381.581L2107.64 382.75H2108.83V381.75ZM2166.08 381.75L2167.06 381.926L2167.27 380.75H2166.08V381.75ZM2160.33 414V415H2161.16L2161.31 414.176L2160.33 414ZM2103.08 414V413H2102.24L2102.09 413.824L2103.08 414ZM2096.08 453.25L2095.09 453.074L2094.88 454.25H2096.08V453.25ZM2160.83 453.25L2161.81 453.425L2162.02 452.25H2160.83V453.25ZM2154.83 487V488H2155.67L2155.81 487.175L2154.83 487ZM2047.33 487L2046.34 486.826L2046.14 488H2047.33V487ZM2078.33 311.5V310.5H2077.49L2077.34 311.326L2078.33 311.5ZM2185.83 311.5L2186.81 311.675L2187.02 310.5H2185.83V311.5ZM2179.83 345.25V346.25H2180.67L2180.81 345.425L2179.83 345.25ZM2114.09 345.081L2107.84 381.581L2109.81 381.919L2116.06 345.419L2114.09 345.081ZM2108.83 382.75H2166.08V380.75H2108.83V382.75ZM2165.09 381.574L2159.34 413.824L2161.31 414.176L2167.06 381.926L2165.09 381.574ZM2160.33 413H2103.08V415H2160.33V413ZM2102.09 413.824L2095.09 453.074L2097.06 453.426L2104.06 414.176L2102.09 413.824ZM2096.08 454.25H2160.83V452.25H2096.08V454.25ZM2159.84 453.075L2153.84 486.825L2155.81 487.175L2161.81 453.425L2159.84 453.075ZM2154.83 486H2047.33V488H2154.83V486ZM2048.31 487.174L2079.31 311.674L2077.34 311.326L2046.34 486.826L2048.31 487.174ZM2078.33 312.5H2185.83V310.5H2078.33V312.5ZM2184.84 311.325L2178.84 345.075L2180.81 345.425L2186.81 311.675L2184.84 311.325ZM2179.83 344.25H2115.08V346.25H2179.83V344.25ZM2297.33 456L2298.32 455.841L2298.18 455H2297.33V456ZM2231.83 456V455H2231.22L2230.94 455.541L2231.83 456ZM2215.83 487V488H2216.44L2216.72 487.459L2215.83 487ZM2171.08 487L2170.2 486.526L2169.41 488H2171.08V487ZM2265.58 311.5V310.5H2264.98L2264.7 311.026L2265.58 311.5ZM2315.08 311.5L2316.06 311.318L2315.91 310.5H2315.08V311.5ZM2347.58 487V488H2348.78L2348.56 486.818L2347.58 487ZM2302.33 487L2301.34 487.159L2301.48 488H2302.33V487ZM2292.33 423.5V424.5H2293.5L2293.32 423.344L2292.33 423.5ZM2282.08 358.5L2283.07 358.344L2282.59 355.325L2281.19 358.042L2282.08 358.5ZM2248.58 423.5L2247.69 423.042L2246.94 424.5H2248.58V423.5ZM2297.33 455H2231.83V457H2297.33V455ZM2230.94 455.541L2214.94 486.541L2216.72 487.459L2232.72 456.459L2230.94 455.541ZM2215.83 486H2171.08V488H2215.83V486ZM2171.96 487.474L2266.46 311.974L2264.7 311.026L2170.2 486.526L2171.96 487.474ZM2265.58 312.5H2315.08V310.5H2265.58V312.5ZM2314.1 311.682L2346.6 487.182L2348.56 486.818L2316.06 311.318L2314.1 311.682ZM2347.58 486H2302.33V488H2347.58V486ZM2303.32 486.841L2298.32 455.841L2296.34 456.159L2301.34 487.159L2303.32 486.841ZM2293.32 423.344L2283.07 358.344L2281.09 358.656L2291.34 423.656L2293.32 423.344ZM2281.19 358.042L2247.69 423.042L2249.47 423.958L2282.97 358.958L2281.19 358.042ZM2248.58 424.5H2292.33V422.5H2248.58V424.5ZM2596.66 311.5L2597.64 311.674L2597.85 310.5H2596.66V311.5ZM2565.66 487V488H2566.5L2566.64 487.174L2565.66 487ZM2522.91 487L2521.92 486.825L2521.71 488H2522.91V487ZM2541.66 381.75L2542.64 381.925L2540.78 381.267L2541.66 381.75ZM2483.66 487V488H2484.25L2484.53 487.483L2483.66 487ZM2449.16 487L2448.18 487.195L2448.34 488H2449.16V487ZM2428.16 381.25L2429.14 381.055L2427.17 381.078L2428.16 381.25ZM2409.66 487V488H2410.5L2410.64 487.172L2409.66 487ZM2366.91 487L2365.92 486.826L2365.72 488H2366.91V487ZM2397.91 311.5V310.5H2397.07L2396.92 311.326L2397.91 311.5ZM2448.41 311.5L2449.38 311.275L2449.2 310.5H2448.41V311.5ZM2476.41 433L2475.43 433.225L2476 435.703L2477.27 433.499L2476.41 433ZM2546.41 311.5V310.5H2545.83L2545.54 311.001L2546.41 311.5ZM2595.67 311.326L2564.67 486.826L2566.64 487.174L2597.64 311.674L2595.67 311.326ZM2565.66 486H2522.91V488H2565.66V486ZM2523.89 487.175L2542.64 381.925L2540.67 381.575L2521.92 486.825L2523.89 487.175ZM2540.78 381.267L2482.78 486.517L2484.53 487.483L2542.53 382.233L2540.78 381.267ZM2483.66 486H2449.16V488H2483.66V486ZM2450.14 486.805L2429.14 381.055L2427.18 381.445L2448.18 487.195L2450.14 486.805ZM2427.17 381.078L2408.67 486.828L2410.64 487.172L2429.14 381.422L2427.17 381.078ZM2409.66 486H2366.91V488H2409.66V486ZM2367.89 487.174L2398.89 311.674L2396.92 311.326L2365.92 486.826L2367.89 487.174ZM2397.91 312.5H2448.41V310.5H2397.91V312.5ZM2447.43 311.725L2475.43 433.225L2477.38 432.775L2449.38 311.275L2447.43 311.725ZM2477.27 433.499L2547.27 311.999L2545.54 311.001L2475.54 432.501L2477.27 433.499ZM2546.41 312.5H2596.66V310.5H2546.41V312.5ZM1158 774L1158.98 774.191L1158.98 774.181L1158.99 774.171L1158 774ZM1177.25 727.75L1176.44 727.159L1176.44 727.161L1177.25 727.75ZM1214.25 696L1214.71 696.89L1214.71 696.886L1214.25 696ZM1312.25 701L1311.6 701.759L1311.6 701.763L1312.25 701ZM1334.25 746V747H1335.34L1335.25 745.913L1334.25 746ZM1287.25 746L1286.29 746.289L1286.51 747H1287.25V746ZM1275.25 729.75L1274.69 730.578L1274.7 730.588L1274.72 730.597L1275.25 729.75ZM1220 737.75L1220.68 738.482L1220.69 738.476L1220 737.75ZM1201.5 774L1202.48 774.176L1202.48 774.173L1201.5 774ZM1210 814L1209.28 814.689L1210 814ZM1259.5 818.5L1259.03 817.618L1259.02 817.623L1259.5 818.5ZM1277.5 802V801H1276.97L1276.67 801.441L1277.5 802ZM1324.5 802L1325.42 802.402L1326.03 801H1324.5V802ZM1286.75 847L1287.29 847.841L1287.3 847.837L1286.75 847ZM1191 854.5L1190.54 855.386L1191 854.5ZM1165.25 829.75L1164.38 830.24L1165.25 829.75ZM1158.99 774.171C1161.96 756.98 1168.32 741.708 1178.06 728.339L1176.44 727.161C1166.51 740.792 1160.04 756.353 1157.01 773.829L1158.99 774.171ZM1178.06 728.341C1187.97 714.796 1200.18 704.317 1214.71 696.89L1213.79 695.11C1198.99 702.683 1186.53 713.37 1176.44 727.159L1178.06 728.341ZM1214.71 696.886C1229.23 689.296 1244.91 685.5 1261.75 685.5V683.5C1244.59 683.5 1228.6 687.37 1213.79 695.114L1214.71 696.886ZM1261.75 685.5C1282.4 685.5 1298.99 690.948 1311.6 701.759L1312.9 700.241C1299.85 689.052 1282.76 683.5 1261.75 683.5V685.5ZM1311.6 701.763C1324.38 712.572 1331.61 727.316 1333.25 746.087L1335.25 745.913C1333.56 726.684 1326.12 711.428 1312.9 700.237L1311.6 701.763ZM1334.25 745H1287.25V747H1334.25V745ZM1288.21 745.711C1285.98 738.335 1281.84 732.71 1275.78 728.903L1274.72 730.597C1280.33 734.123 1284.19 739.332 1286.29 746.289L1288.21 745.711ZM1275.81 728.922C1269.95 724.954 1262.74 723 1254.25 723V725C1262.43 725 1269.22 726.879 1274.69 730.578L1275.81 728.922ZM1254.25 723C1240.82 723 1229.16 727.684 1219.31 737.024L1220.69 738.476C1230.17 729.483 1241.34 725 1254.25 725V723ZM1219.32 737.018C1209.47 746.19 1203.21 758.483 1200.52 773.827L1202.48 774.173C1205.12 759.184 1211.2 747.31 1220.68 738.482L1219.32 737.018ZM1200.52 773.824C1199.68 778.53 1199.25 782.675 1199.25 786.25H1201.25C1201.25 782.825 1201.66 778.803 1202.48 774.176L1200.52 773.824ZM1199.25 786.25C1199.25 798.109 1202.56 807.628 1209.28 814.689L1210.72 813.311C1204.44 806.705 1201.25 797.724 1201.25 786.25H1199.25ZM1209.28 814.689C1216 821.76 1225.2 825.25 1236.75 825.25V823.25C1225.63 823.25 1217 819.906 1210.72 813.311L1209.28 814.689ZM1236.75 825.25C1245.08 825.25 1252.83 823.293 1259.98 819.377L1259.02 817.623C1252.17 821.374 1244.75 823.25 1236.75 823.25V825.25ZM1259.97 819.382C1267.29 815.467 1273.41 809.852 1278.33 802.559L1276.67 801.441C1271.92 808.481 1266.04 813.867 1259.03 817.618L1259.97 819.382ZM1277.5 803H1324.5V801H1277.5V803ZM1323.58 801.598C1315.33 820.426 1302.87 835.273 1286.2 846.163L1287.3 847.837C1304.3 836.727 1317.01 821.574 1325.42 802.402L1323.58 801.598ZM1286.21 846.159C1269.54 856.884 1250.9 862.25 1230.25 862.25V864.25C1251.27 864.25 1270.29 858.782 1287.29 847.841L1286.21 846.159ZM1230.25 862.25C1215.38 862.25 1202.46 859.359 1191.46 853.614L1190.54 855.386C1201.87 861.307 1215.12 864.25 1230.25 864.25V862.25ZM1191.46 853.614C1180.46 847.867 1172.02 839.752 1166.12 829.26L1164.38 830.24C1170.48 841.081 1179.2 849.466 1190.54 855.386L1191.46 853.614ZM1166.12 829.26C1160.22 818.765 1157.25 806.522 1157.25 792.5H1155.25C1155.25 806.811 1158.28 819.402 1164.38 830.24L1166.12 829.26ZM1157.25 792.5C1157.25 786.228 1157.83 780.126 1158.98 774.191L1157.02 773.809C1155.84 779.874 1155.25 786.105 1155.25 792.5H1157.25ZM1384.18 854.5L1383.7 855.375L1383.7 855.378L1384.18 854.5ZM1358.18 828.5L1359.06 828.017L1358.18 828.5ZM1362.18 735.25L1363.06 735.733L1363.06 735.729L1362.18 735.25ZM1398.93 697.5L1398.44 696.631L1398.43 696.633L1398.93 697.5ZM1492.18 693.25L1491.7 694.128L1491.71 694.134L1492.18 693.25ZM1518.43 719L1517.55 719.483L1517.56 719.489L1518.43 719ZM1514.43 812.25L1515.31 812.729L1515.31 812.726L1514.43 812.25ZM1477.43 850.25L1477.92 851.119L1477.93 851.115L1477.43 850.25ZM1458.93 815.75L1459.49 816.577L1458.93 815.75ZM1478.18 793L1477.28 792.565L1477.28 792.572L1478.18 793ZM1475.18 733.5L1475.9 732.802L1475.18 733.5ZM1417.93 731.75L1417.37 730.918L1417.37 730.923L1417.93 731.75ZM1398.43 754.5L1397.53 754.059L1397.53 754.066L1398.43 754.5ZM1401.68 814L1400.96 814.69L1400.96 814.698L1401.68 814ZM1423.43 862.75C1408.74 862.75 1395.82 859.697 1384.66 853.622L1383.7 855.378C1395.2 861.636 1408.45 864.75 1423.43 864.75V862.75ZM1384.66 853.625C1373.66 847.549 1365.13 839.018 1359.06 828.017L1357.3 828.983C1363.56 840.315 1372.36 849.118 1383.7 855.375L1384.66 853.625ZM1359.06 828.017C1352.98 817.017 1349.93 804.354 1349.93 790H1347.93C1347.93 804.646 1351.05 817.649 1357.3 828.983L1359.06 828.017ZM1349.93 790C1349.93 769.648 1354.31 751.568 1363.06 735.733L1361.3 734.767C1352.38 750.932 1347.93 769.352 1347.93 790H1349.93ZM1363.06 735.729C1371.8 719.721 1383.92 707.273 1399.43 698.367L1398.43 696.633C1382.6 705.727 1370.22 718.445 1361.3 734.771L1363.06 735.729ZM1399.42 698.369C1415.09 689.463 1432.84 685 1452.68 685V683C1432.52 683 1414.43 687.537 1398.44 696.631L1399.42 698.369ZM1452.68 685C1467.54 685 1480.54 688.054 1491.7 694.128L1492.66 692.372C1481.16 686.113 1467.82 683 1452.68 683V685ZM1491.71 694.134C1502.87 700.043 1511.48 708.488 1517.55 719.483L1519.31 718.517C1513.04 707.179 1504.15 698.457 1492.65 692.366L1491.71 694.134ZM1517.56 719.489C1523.63 730.32 1526.68 742.814 1526.68 757H1528.68C1528.68 742.519 1525.56 729.68 1519.3 718.511L1517.56 719.489ZM1526.68 757C1526.68 777.352 1522.3 795.602 1513.55 811.774L1515.31 812.726C1524.23 796.232 1528.68 777.648 1528.68 757H1526.68ZM1513.55 811.771C1504.81 827.778 1492.6 840.31 1476.93 849.385L1477.93 851.115C1493.92 841.856 1506.39 829.056 1515.31 812.729L1513.55 811.771ZM1476.94 849.381C1461.27 858.286 1443.44 862.75 1423.43 862.75V864.75C1443.75 864.75 1461.92 860.214 1477.92 851.119L1476.94 849.381ZM1429.93 825.25C1441.11 825.25 1450.98 822.367 1459.49 816.577L1458.37 814.923C1450.22 820.467 1440.75 823.25 1429.93 823.25V825.25ZM1459.49 816.577C1467.98 810.806 1474.51 803.082 1479.08 793.428L1477.28 792.572C1472.85 801.918 1466.55 809.361 1458.37 814.923L1459.49 816.577ZM1479.08 793.435C1483.82 783.627 1486.18 773.061 1486.18 761.75H1484.18C1484.18 772.772 1481.88 783.04 1477.28 792.565L1479.08 793.435ZM1486.18 761.75C1486.18 749.56 1482.79 739.867 1475.9 732.802L1474.46 734.198C1480.9 740.8 1484.18 749.94 1484.18 761.75H1486.18ZM1475.9 732.802C1468.99 725.729 1459.38 722.25 1447.18 722.25V724.25C1458.98 724.25 1468.03 727.605 1474.46 734.198L1475.9 732.802ZM1447.18 722.25C1436 722.25 1426.05 725.133 1417.38 730.918L1418.48 732.582C1426.81 727.033 1436.36 724.25 1447.18 724.25V722.25ZM1417.37 730.923C1408.88 736.692 1402.27 744.412 1397.53 754.059L1399.33 754.941C1403.92 745.588 1410.31 738.141 1418.49 732.577L1417.37 730.923ZM1397.53 754.066C1392.96 763.547 1390.68 774.031 1390.68 785.5H1392.68C1392.68 774.303 1394.9 764.12 1399.33 754.934L1397.53 754.066ZM1390.68 785.5C1390.68 797.692 1394.07 807.461 1400.96 814.69L1402.4 813.31C1395.95 806.539 1392.68 797.308 1392.68 785.5H1390.68ZM1400.96 814.698C1407.87 821.774 1417.57 825.25 1429.93 825.25V823.25C1417.95 823.25 1408.83 819.893 1402.4 813.302L1400.96 814.698ZM1766.21 686.5L1767.2 686.674L1767.41 685.5H1766.21V686.5ZM1735.21 862V863H1736.05L1736.2 862.174L1735.21 862ZM1692.46 862L1691.48 861.825L1691.27 863H1692.46V862ZM1711.21 756.75L1712.2 756.925L1710.34 756.267L1711.21 756.75ZM1653.21 862V863H1653.8L1654.09 862.483L1653.21 862ZM1618.71 862L1617.73 862.195L1617.89 863H1618.71V862ZM1597.71 756.25L1598.69 756.055L1596.73 756.078L1597.71 756.25ZM1579.21 862V863H1580.05L1580.2 862.172L1579.21 862ZM1536.46 862L1535.48 861.826L1535.27 863H1536.46V862ZM1567.46 686.5V685.5H1566.62L1566.48 686.326L1567.46 686.5ZM1617.96 686.5L1618.94 686.275L1618.76 685.5H1617.96V686.5ZM1645.96 808L1644.99 808.225L1645.56 810.703L1646.83 808.499L1645.96 808ZM1715.96 686.5V685.5H1715.38L1715.1 686.001L1715.96 686.5ZM1765.23 686.326L1734.23 861.826L1736.2 862.174L1767.2 686.674L1765.23 686.326ZM1735.21 861H1692.46V863H1735.21V861ZM1693.45 862.175L1712.2 756.925L1710.23 756.575L1691.48 861.825L1693.45 862.175ZM1710.34 756.267L1652.34 861.517L1654.09 862.483L1712.09 757.233L1710.34 756.267ZM1653.21 861H1618.71V863H1653.21V861ZM1619.69 861.805L1598.69 756.055L1596.73 756.445L1617.73 862.195L1619.69 861.805ZM1596.73 756.078L1578.23 861.828L1580.2 862.172L1598.7 756.422L1596.73 756.078ZM1579.21 861H1536.46V863H1579.21V861ZM1537.45 862.174L1568.45 686.674L1566.48 686.326L1535.48 861.826L1537.45 862.174ZM1567.46 687.5H1617.96V685.5H1567.46V687.5ZM1616.99 686.725L1644.99 808.225L1646.94 807.775L1618.94 686.275L1616.99 686.725ZM1646.83 808.499L1716.83 686.999L1715.1 686.001L1645.1 807.501L1646.83 808.499ZM1715.96 687.5H1766.21V685.5H1715.96V687.5ZM1920.71 743L1919.72 742.813L1919.72 742.826L1919.72 742.838L1920.71 743ZM1908.96 771L1909.76 771.595L1909.76 771.587L1908.96 771ZM1883.71 791.25L1883.27 790.35L1883.26 790.353L1883.71 791.25ZM1819.96 799V798H1819.12L1818.97 798.824L1819.96 799ZM1808.71 862V863H1809.54L1809.69 862.176L1808.71 862ZM1765.96 862L1764.97 861.826L1764.76 863H1765.96V862ZM1796.96 686.5V685.5H1796.12L1795.97 686.326L1796.96 686.5ZM1907.71 698.75L1907.05 699.503L1907.05 699.509L1907.71 698.75ZM1877.21 743L1878.19 743.186L1878.19 743.155L1878.2 743.124L1877.21 743ZM1872.46 725L1871.79 725.743L1871.81 725.761L1871.83 725.777L1872.46 725ZM1833.71 720.5V719.5H1832.86L1832.72 720.33L1833.71 720.5ZM1825.96 765.5L1824.97 765.33L1824.77 766.5H1825.96V765.5ZM1919.72 742.838C1918.08 752.848 1914.22 762.036 1908.15 770.413L1909.76 771.587C1916.02 762.964 1920 753.485 1921.69 743.162L1919.72 742.838ZM1908.15 770.405C1902.09 778.591 1893.81 785.244 1883.27 790.35L1884.14 792.15C1894.93 786.923 1903.48 780.076 1909.76 771.595L1908.15 770.405ZM1883.26 790.353C1872.93 795.438 1860.67 798 1846.46 798V800C1860.91 800 1873.48 797.395 1884.15 792.147L1883.26 790.353ZM1846.46 798H1819.96V800H1846.46V798ZM1818.97 798.824L1807.72 861.824L1809.69 862.176L1820.94 799.176L1818.97 798.824ZM1808.71 861H1765.96V863H1808.71V861ZM1766.94 862.174L1797.94 686.674L1795.97 686.326L1764.97 861.826L1766.94 862.174ZM1796.96 687.5H1866.21V685.5H1796.96V687.5ZM1866.21 687.5C1884.41 687.5 1897.97 691.557 1907.05 699.503L1908.36 697.997C1898.78 689.61 1884.67 685.5 1866.21 685.5V687.5ZM1907.05 699.509C1916.14 707.294 1920.71 717.918 1920.71 731.5H1922.71C1922.71 717.416 1917.94 706.206 1908.36 697.991L1907.05 699.509ZM1920.71 731.5C1920.71 735.614 1920.38 739.384 1919.72 742.813L1921.69 743.187C1922.37 739.616 1922.71 735.719 1922.71 731.5H1920.71ZM1848.96 766.5C1857.11 766.5 1863.7 764.589 1868.64 760.657C1873.58 756.721 1876.74 750.856 1878.19 743.186L1876.22 742.814C1874.84 750.144 1871.87 755.529 1867.39 759.093C1862.91 762.661 1856.8 764.5 1848.96 764.5V766.5ZM1878.2 743.124C1878.53 740.455 1878.71 738.484 1878.71 737.25H1876.71C1876.71 738.349 1876.55 740.211 1876.21 742.876L1878.2 743.124ZM1878.71 737.25C1878.71 731.677 1876.86 727.282 1873.08 724.223L1871.83 725.777C1875.05 728.385 1876.71 732.156 1876.71 737.25H1878.71ZM1873.12 724.257C1869.53 721.02 1864.07 719.5 1856.96 719.5V721.5C1863.84 721.5 1868.72 722.98 1871.79 725.743L1873.12 724.257ZM1856.96 719.5H1833.71V721.5H1856.96V719.5ZM1832.72 720.33L1824.97 765.33L1826.94 765.67L1834.69 720.67L1832.72 720.33ZM1825.96 766.5H1848.96V764.5H1825.96V766.5ZM2036.71 831L2037.7 830.841L2037.56 830H2036.71V831ZM1971.21 831V830H1970.6L1970.32 830.541L1971.21 831ZM1955.21 862V863H1955.82L1956.1 862.459L1955.21 862ZM1910.46 862L1909.58 861.526L1908.79 863H1910.46V862ZM2004.96 686.5V685.5H2004.36L2004.08 686.026L2004.96 686.5ZM2054.46 686.5L2055.44 686.318L2055.29 685.5H2054.46V686.5ZM2086.96 862V863H2088.16L2087.94 861.818L2086.96 862ZM2041.71 862L2040.72 862.159L2040.86 863H2041.71V862ZM2031.71 798.5V799.5H2032.88L2032.7 798.344L2031.71 798.5ZM2021.46 733.5L2022.45 733.344L2021.97 730.325L2020.57 733.042L2021.46 733.5ZM1987.96 798.5L1987.07 798.042L1986.32 799.5H1987.96V798.5ZM2036.71 830H1971.21V832H2036.71V830ZM1970.32 830.541L1954.32 861.541L1956.1 862.459L1972.1 831.459L1970.32 830.541ZM1955.21 861H1910.46V863H1955.21V861ZM1911.34 862.474L2005.84 686.974L2004.08 686.026L1909.58 861.526L1911.34 862.474ZM2004.96 687.5H2054.46V685.5H2004.96V687.5ZM2053.48 686.682L2085.98 862.182L2087.94 861.818L2055.44 686.318L2053.48 686.682ZM2086.96 861H2041.71V863H2086.96V861ZM2042.7 861.841L2037.7 830.841L2035.72 831.159L2040.72 862.159L2042.7 861.841ZM2032.7 798.344L2022.45 733.344L2020.47 733.656L2030.72 798.656L2032.7 798.344ZM2020.57 733.042L1987.07 798.042L1988.85 798.958L2022.35 733.958L2020.57 733.042ZM1987.96 799.5H2031.71V797.5H1987.96V799.5ZM2263.29 862V863H2264.13L2264.27 862.174L2263.29 862ZM2220.54 862L2219.64 862.435L2219.91 863H2220.54V862ZM2168.29 753.75L2169.19 753.315L2167.84 750.531L2167.3 753.575L2168.29 753.75ZM2149.04 862V863H2149.88L2150.02 862.175L2149.04 862ZM2106.29 862L2105.3 861.826L2105.09 863H2106.29V862ZM2137.29 686.5V685.5H2136.45L2136.3 686.326L2137.29 686.5ZM2180.04 686.5L2180.94 686.067L2180.67 685.5H2180.04V686.5ZM2232.29 795.25L2231.39 795.683L2232.73 798.482L2233.27 795.424L2232.29 795.25ZM2251.54 686.5V685.5H2250.7L2250.55 686.326L2251.54 686.5ZM2294.29 686.5L2295.27 686.674L2295.48 685.5H2294.29V686.5ZM2263.29 861H2220.54V863H2263.29V861ZM2221.44 861.565L2169.19 753.315L2167.39 754.185L2219.64 862.435L2221.44 861.565ZM2167.3 753.575L2148.05 861.825L2150.02 862.175L2169.27 753.925L2167.3 753.575ZM2149.04 861H2106.29V863H2149.04V861ZM2107.27 862.174L2138.27 686.674L2136.3 686.326L2105.3 861.826L2107.27 862.174ZM2137.29 687.5H2180.04V685.5H2137.29V687.5ZM2179.14 686.933L2231.39 795.683L2233.19 794.817L2180.94 686.067L2179.14 686.933ZM2233.27 795.424L2252.52 686.674L2250.55 686.326L2231.3 795.076L2233.27 795.424ZM2251.54 687.5H2294.29V685.5H2251.54V687.5ZM2293.3 686.326L2262.3 861.826L2264.27 862.174L2295.27 686.674L2293.3 686.326ZM2475.78 686.5L2476.6 687.069L2477.68 685.5H2475.78V686.5ZM2394.53 804L2393.7 803.431L2393.58 803.609L2393.54 803.822L2394.53 804ZM2384.03 862V863H2384.86L2385.01 862.178L2384.03 862ZM2341.28 862L2340.29 861.822L2340.08 863H2341.28V862ZM2351.78 804L2352.76 804.178L2352.81 803.922L2352.72 803.676L2351.78 804ZM2311.53 686.5V685.5H2310.13L2310.58 686.824L2311.53 686.5ZM2360.03 686.5L2360.99 686.224L2360.78 685.5H2360.03V686.5ZM2381.03 759.75L2380.06 760.026L2380.68 762.157L2381.87 760.288L2381.03 759.75ZM2427.78 686.5V685.5H2427.23L2426.93 685.962L2427.78 686.5ZM2474.95 685.931L2393.7 803.431L2395.35 804.569L2476.6 687.069L2474.95 685.931ZM2393.54 803.822L2383.04 861.822L2385.01 862.178L2395.51 804.178L2393.54 803.822ZM2384.03 861H2341.28V863H2384.03V861ZM2342.26 862.178L2352.76 804.178L2350.79 803.822L2340.29 861.822L2342.26 862.178ZM2352.72 803.676L2312.47 686.176L2310.58 686.824L2350.83 804.324L2352.72 803.676ZM2311.53 687.5H2360.03V685.5H2311.53V687.5ZM2359.06 686.776L2380.06 760.026L2381.99 759.474L2360.99 686.224L2359.06 686.776ZM2381.87 760.288L2428.62 687.038L2426.93 685.962L2380.18 759.212L2381.87 760.288ZM2427.78 687.5H2475.78V685.5H2427.78V687.5Z" fill="black"/>
</g>
<g filter="url(#filter1_d_10_0)">
<path d="M504.067 613.589L344.559 458.606L500.674 86.4189L655.657 454.081L504.067 613.589Z" fill="#818181"/>
<path d="M127.354 988.043L501.804 611.331L880.778 986.912L906.797 1048L501.804 879.441L102.466 1048L127.354 988.043Z" fill="black"/>
<path d="M655.654 454.074L504.064 613.583L906.796 1047.99L655.654 454.074Z" fill="#717171"/>
<path d="M504.066 613.588L344.557 458.604L102.466 1047.99L504.066 613.588Z" fill="#555555"/>
</g>
<defs>
<filter id="filter0_d_10_0" x="931.601" y="255.5" width="1733.06" height="692.25" filterUnits="userSpaceOnUse" color-interpolation-filters="sRGB">
<feFlood flood-opacity="0" result="BackgroundImageFix"/>
<feColorMatrix in="SourceAlpha" type="matrix" values="0 0 0 0 0 0 0 0 0 0 0 0 0 0 0 0 0 0 127 0" result="hardAlpha"/>
<feOffset dx="-2" dy="14"/>
<feGaussianBlur stdDeviation="35"/>
<feComposite in2="hardAlpha" operator="out"/>
<feColorMatrix type="matrix" values="0 0 0 0 0 0 0 0 0 0 0 0 0 0 0 0 0 0 0.2 0"/>
<feBlend mode="normal" in2="BackgroundImageFix" result="effect1_dropShadow_10_0"/>
<feBlend mode="normal" in="SourceGraphic" in2="effect1_dropShadow_10_0" result="shape"/>
</filter>
<filter id="filter1_d_10_0" x="0.466309" y="0.418945" width="1004.33" height="1161.58" filterUnits="userSpaceOnUse" color-interpolation-filters="sRGB">
<feFlood flood-opacity="0" result="BackgroundImageFix"/>
<feColorMatrix in="SourceAlpha" type="matrix" values="0 0 0 0 0 0 0 0 0 0 0 0 0 0 0 0 0 0 127 0" result="hardAlpha"/>
<feOffset dx="-2" dy="14"/>
<feGaussianBlur stdDeviation="50"/>
<feColorMatrix type="matrix" values="0 0 0 0 0.05 0 0 0 0 0.05 0 0 0 0 0.05 0 0 0 0.31 0"/>
<feBlend mode="normal" in2="BackgroundImageFix" result="effect1_dropShadow_10_0"/>
<feBlend mode="normal" in="SourceGraphic" in2="effect1_dropShadow_10_0" result="shape"/>
</filter>
<linearGradient id="paint0_linear_10_0" x1="761.947" y1="89.5" x2="2807.08" y2="966.579" gradientUnits="userSpaceOnUse">
<stop stop-color="#555555"/>
<stop offset="0.477081"/>
<stop offset="1" stop-color="#717171"/>
</linearGradient>
</defs>
</svg>
