<svg width="2682" height="1177" viewBox="0 0 2682 1177" fill="none" xmlns="http://www.w3.org/2000/svg">
<rect x="48" width="2634" height="1144" fill="white"/>
<g filter="url(#filter0_d_10_0)">
<path d="M1129.85 471H1064.35L1048.35 502H1003.6L1098.1 326.5H1147.6L1180.1 502H1134.85L1129.85 471ZM1124.85 438.5L1114.6 373.5L1081.1 438.5H1124.85ZM1247.93 469.5H1303.93L1298.18 502H1199.43L1230.43 326.5H1273.18L1247.93 469.5ZM1473.32 383C1471.65 393.167 1467.73 402.5 1461.57 411C1455.4 419.333 1446.98 426.083 1436.32 431.25C1425.82 436.417 1413.4 439 1399.07 439H1372.57L1361.32 502H1318.57L1349.57 326.5H1418.82C1437.15 326.5 1450.98 330.583 1460.32 338.75C1469.65 346.75 1474.32 357.667 1474.32 371.5C1474.32 375.667 1473.98 379.5 1473.32 383ZM1401.57 405.5C1417.57 405.5 1426.98 398 1429.82 383C1430.15 380.333 1430.32 378.417 1430.32 377.25C1430.32 371.917 1428.57 367.833 1425.07 365C1421.73 362 1416.57 360.5 1409.57 360.5H1386.32L1378.57 405.5H1401.57ZM1657.57 326.5L1626.57 502H1583.82L1596.57 429.25H1530.07L1517.32 502H1474.57L1505.57 326.5H1548.32L1536.07 395.5H1602.57L1614.82 326.5H1657.57ZM1772.18 471H1706.68L1690.68 502H1645.93L1740.43 326.5H1789.93L1822.43 502H1777.18L1772.18 471ZM1767.18 438.5L1756.93 373.5L1723.43 438.5H1767.18ZM2056.87 326.5L2051.12 360.25H2004.37L1979.37 502H1936.62L1961.62 360.25H1915.12L1921.12 326.5H2056.87ZM2115.08 360.25L2108.83 396.75H2166.08L2160.33 429H2103.08L2096.08 468.25H2160.83L2154.83 502H2047.33L2078.33 326.5H2185.83L2179.83 360.25H2115.08ZM2297.33 471H2231.83L2215.83 502H2171.08L2265.58 326.5H2315.08L2347.58 502H2302.33L2297.33 471ZM2292.33 438.5L2282.08 373.5L2248.58 438.5H2292.33ZM2596.66 326.5L2565.66 502H2522.91L2541.66 396.75L2483.66 502H2449.16L2428.16 396.25L2409.66 502H2366.91L2397.91 326.5H2448.41L2476.41 448L2546.41 326.5H2596.66ZM1158 789C1161 771.667 1167.42 756.25 1177.25 742.75C1187.25 729.083 1199.58 718.5 1214.25 711C1228.92 703.333 1244.75 699.5 1261.75 699.5C1282.58 699.5 1299.42 705 1312.25 716C1325.25 727 1332.58 742 1334.25 761H1287.25C1285.08 753.833 1281.08 748.417 1275.25 744.75C1269.58 740.917 1262.58 739 1254.25 739C1241.08 739 1229.67 743.583 1220 752.75C1210.33 761.75 1204.17 773.833 1201.5 789C1200.67 793.667 1200.25 797.75 1200.25 801.25C1200.25 812.917 1203.5 822.167 1210 829C1216.5 835.833 1225.42 839.25 1236.75 839.25C1244.92 839.25 1252.5 837.333 1259.5 833.5C1266.67 829.667 1272.67 824.167 1277.5 817H1324.5C1316.17 836 1303.58 851 1286.75 862C1269.92 872.833 1251.08 878.25 1230.25 878.25C1215.25 878.25 1202.17 875.333 1191 869.5C1179.83 863.667 1171.25 855.417 1165.25 844.75C1159.25 834.083 1156.25 821.667 1156.25 807.5C1156.25 801.167 1156.83 795 1158 789ZM1423.43 878.75C1408.6 878.75 1395.51 875.667 1384.18 869.5C1373.01 863.333 1364.35 854.667 1358.18 843.5C1352.01 832.333 1348.93 819.5 1348.93 805C1348.93 784.5 1353.35 766.25 1362.18 750.25C1371.01 734.083 1383.26 721.5 1398.93 712.5C1414.76 703.5 1432.68 699 1452.68 699C1467.68 699 1480.85 702.083 1492.18 708.25C1503.51 714.25 1512.26 722.833 1518.43 734C1524.6 745 1527.68 757.667 1527.68 772C1527.68 792.5 1523.26 810.917 1514.43 827.25C1505.6 843.417 1493.26 856.083 1477.43 865.25C1461.6 874.25 1443.6 878.75 1423.43 878.75ZM1429.93 839.25C1440.93 839.25 1450.6 836.417 1458.93 830.75C1467.26 825.083 1473.68 817.5 1478.18 808C1482.85 798.333 1485.18 787.917 1485.18 776.75C1485.18 764.75 1481.85 755.333 1475.18 748.5C1468.51 741.667 1459.18 738.25 1447.18 738.25C1436.18 738.25 1426.43 741.083 1417.93 746.75C1409.6 752.417 1403.1 760 1398.43 769.5C1393.93 778.833 1391.68 789.167 1391.68 800.5C1391.68 812.5 1395.01 822 1401.68 829C1408.35 835.833 1417.76 839.25 1429.93 839.25ZM1766.21 701.5L1735.21 877H1692.46L1711.21 771.75L1653.21 877H1618.71L1597.71 771.25L1579.21 877H1536.46L1567.46 701.5H1617.96L1645.96 823L1715.96 701.5H1766.21ZM1920.71 758C1919.04 768.167 1915.12 777.5 1908.96 786C1902.79 794.333 1894.37 801.083 1883.71 806.25C1873.21 811.417 1860.79 814 1846.46 814H1819.96L1808.71 877H1765.96L1796.96 701.5H1866.21C1884.54 701.5 1898.37 705.583 1907.71 713.75C1917.04 721.75 1921.71 732.667 1921.71 746.5C1921.71 750.667 1921.37 754.5 1920.71 758ZM1848.96 780.5C1864.96 780.5 1874.37 773 1877.21 758C1877.54 755.333 1877.71 753.417 1877.71 752.25C1877.71 746.917 1875.96 742.833 1872.46 740C1869.12 737 1863.96 735.5 1856.96 735.5H1833.71L1825.96 780.5H1848.96ZM2036.71 846H1971.21L1955.21 877H1910.46L2004.96 701.5H2054.46L2086.96 877H2041.71L2036.71 846ZM2031.71 813.5L2021.46 748.5L1987.96 813.5H2031.71ZM2263.29 877H2220.54L2168.29 768.75L2149.04 877H2106.29L2137.29 701.5H2180.04L2232.29 810.25L2251.54 701.5H2294.29L2263.29 877ZM2475.78 701.5L2394.53 819L2384.03 877H2341.28L2351.78 819L2311.53 701.5H2360.03L2381.03 774.75L2427.78 701.5H2475.78Z" fill="url(#paint0_linear_10_0)"/>
<path d="M1129.85 471L1130.84 470.841L1130.7 470H1129.85V471ZM1064.35 471V470H1063.74L1063.46 470.541L1064.35 471ZM1048.35 502V503H1048.96L1049.24 502.459L1048.35 502ZM1003.6 502L1002.72 501.526L1001.93 503H1003.6V502ZM1098.1 326.5V325.5H1097.5L1097.22 326.026L1098.1 326.5ZM1147.6 326.5L1148.58 326.318L1148.43 325.5H1147.6V326.5ZM1180.1 502V503H1181.3L1181.08 501.818L1180.1 502ZM1134.85 502L1133.86 502.159L1134 503H1134.85V502ZM1124.85 438.5V439.5H1126.02L1125.84 438.344L1124.85 438.5ZM1114.6 373.5L1115.59 373.344L1115.11 370.325L1113.71 373.042L1114.6 373.5ZM1081.1 438.5L1080.21 438.042L1079.46 439.5H1081.1V438.5ZM1129.85 470H1064.35V472H1129.85V470ZM1063.46 470.541L1047.46 501.541L1049.24 502.459L1065.24 471.459L1063.46 470.541ZM1048.35 501H1003.6V503H1048.35V501ZM1004.48 502.474L1098.98 326.974L1097.22 326.026L1002.72 501.526L1004.48 502.474ZM1098.1 327.5H1147.6V325.5H1098.1V327.5ZM1146.62 326.682L1179.12 502.182L1181.08 501.818L1148.58 326.318L1146.62 326.682ZM1180.1 501H1134.85V503H1180.1V501ZM1135.84 501.841L1130.84 470.841L1128.86 471.159L1133.86 502.159L1135.84 501.841ZM1125.84 438.344L1115.59 373.344L1113.61 373.656L1123.86 438.656L1125.84 438.344ZM1113.71 373.042L1080.21 438.042L1081.99 438.958L1115.49 373.958L1113.71 373.042ZM1081.1 439.5H1124.85V437.5H1081.1V439.5ZM1247.93 469.5L1246.94 469.326L1246.73 470.5H1247.93V469.5ZM1303.93 469.5L1304.91 469.674L1305.12 468.5H1303.93V469.5ZM1298.18 502V503H1299.02L1299.16 502.174L1298.18 502ZM1199.43 502L1198.44 501.826L1198.23 503H1199.43V502ZM1230.43 326.5V325.5H1229.59L1229.44 326.326L1230.43 326.5ZM1273.18 326.5L1274.16 326.674L1274.37 325.5H1273.18V326.5ZM1247.93 470.5H1303.93V468.5H1247.93V470.5ZM1302.94 469.326L1297.19 501.826L1299.16 502.174L1304.91 469.674L1302.94 469.326ZM1298.18 501H1199.43V503H1298.18V501ZM1200.41 502.174L1231.41 326.674L1229.44 326.326L1198.44 501.826L1200.41 502.174ZM1230.43 327.5H1273.18V325.5H1230.43V327.5ZM1272.19 326.326L1246.94 469.326L1248.91 469.674L1274.16 326.674L1272.19 326.326ZM1473.32 383L1472.34 382.813L1472.33 382.826L1472.33 382.838L1473.32 383ZM1461.57 411L1462.37 411.595L1462.38 411.587L1461.57 411ZM1436.32 431.25L1435.88 430.35L1435.88 430.353L1436.32 431.25ZM1372.57 439V438H1371.73L1371.58 438.824L1372.57 439ZM1361.32 502V503H1362.15L1362.3 502.176L1361.32 502ZM1318.57 502L1317.58 501.826L1317.38 503H1318.57V502ZM1349.57 326.5V325.5H1348.73L1348.58 326.326L1349.57 326.5ZM1460.32 338.75L1459.66 339.503L1459.67 339.509L1460.32 338.75ZM1429.82 383L1430.8 383.186L1430.81 383.155L1430.81 383.124L1429.82 383ZM1425.07 365L1424.4 365.743L1424.42 365.761L1424.44 365.777L1425.07 365ZM1386.32 360.5V359.5H1385.47L1385.33 360.33L1386.32 360.5ZM1378.57 405.5L1377.58 405.33L1377.38 406.5H1378.57V405.5ZM1472.33 382.838C1470.69 392.848 1466.83 402.036 1460.76 410.413L1462.38 411.587C1468.63 402.964 1472.61 393.485 1474.3 383.162L1472.33 382.838ZM1460.76 410.405C1454.71 418.591 1446.42 425.244 1435.88 430.35L1436.75 432.15C1447.54 426.923 1456.1 420.076 1462.37 411.595L1460.76 410.405ZM1435.88 430.353C1425.54 435.438 1413.28 438 1399.07 438V440C1413.52 440 1426.09 437.395 1436.76 432.147L1435.88 430.353ZM1399.07 438H1372.57V440H1399.07V438ZM1371.58 438.824L1360.33 501.824L1362.3 502.176L1373.55 439.176L1371.58 438.824ZM1361.32 501H1318.57V503H1361.32V501ZM1319.55 502.174L1350.55 326.674L1348.58 326.326L1317.58 501.826L1319.55 502.174ZM1349.57 327.5H1418.82V325.5H1349.57V327.5ZM1418.82 327.5C1437.02 327.5 1450.58 331.557 1459.66 339.503L1460.98 337.997C1451.39 329.61 1437.28 325.5 1418.82 325.5V327.5ZM1459.67 339.509C1468.75 347.294 1473.32 357.918 1473.32 371.5H1475.32C1475.32 357.416 1470.55 346.206 1460.97 337.991L1459.67 339.509ZM1473.32 371.5C1473.32 375.614 1472.99 379.384 1472.34 382.813L1474.3 383.187C1474.98 379.616 1475.32 375.719 1475.32 371.5H1473.32ZM1401.57 406.5C1409.72 406.5 1416.32 404.589 1421.25 400.657C1426.19 396.721 1429.35 390.856 1430.8 383.186L1428.83 382.814C1427.45 390.144 1424.48 395.529 1420.01 399.093C1415.53 402.661 1409.42 404.5 1401.57 404.5V406.5ZM1430.81 383.124C1431.14 380.455 1431.32 378.484 1431.32 377.25H1429.32C1429.32 378.349 1429.16 380.211 1428.83 382.876L1430.81 383.124ZM1431.32 377.25C1431.32 371.677 1429.48 367.282 1425.7 364.223L1424.44 365.777C1427.66 368.385 1429.32 372.156 1429.32 377.25H1431.32ZM1425.74 364.257C1422.14 361.02 1416.68 359.5 1409.57 359.5V361.5C1416.45 361.5 1421.33 362.98 1424.4 365.743L1425.74 364.257ZM1409.57 359.5H1386.32V361.5H1409.57V359.5ZM1385.33 360.33L1377.58 405.33L1379.55 405.67L1387.3 360.67L1385.33 360.33ZM1378.57 406.5H1401.57V404.5H1378.57V406.5ZM1657.57 326.5L1658.56 326.674L1658.77 325.5H1657.57V326.5ZM1626.57 502V503H1627.41L1627.56 502.174L1626.57 502ZM1583.82 502L1582.84 501.827L1582.63 503H1583.82V502ZM1596.57 429.25L1597.56 429.423L1597.76 428.25H1596.57V429.25ZM1530.07 429.25V428.25H1529.23L1529.09 429.077L1530.07 429.25ZM1517.32 502V503H1518.16L1518.31 502.173L1517.32 502ZM1474.57 502L1473.59 501.826L1473.38 503H1474.57V502ZM1505.57 326.5V325.5H1504.73L1504.59 326.326L1505.57 326.5ZM1548.32 326.5L1549.31 326.675L1549.52 325.5H1548.32V326.5ZM1536.07 395.5L1535.09 395.325L1534.88 396.5H1536.07V395.5ZM1602.57 395.5V396.5H1603.41L1603.56 395.675L1602.57 395.5ZM1614.82 326.5V325.5H1613.99L1613.84 326.325L1614.82 326.5ZM1656.59 326.326L1625.59 501.826L1627.56 502.174L1658.56 326.674L1656.59 326.326ZM1626.57 501H1583.82V503H1626.57V501ZM1584.81 502.173L1597.56 429.423L1595.59 429.077L1582.84 501.827L1584.81 502.173ZM1596.57 428.25H1530.07V430.25H1596.57V428.25ZM1529.09 429.077L1516.34 501.827L1518.31 502.173L1531.06 429.423L1529.09 429.077ZM1517.32 501H1474.57V503H1517.32V501ZM1475.56 502.174L1506.56 326.674L1504.59 326.326L1473.59 501.826L1475.56 502.174ZM1505.57 327.5H1548.32V325.5H1505.57V327.5ZM1547.34 326.325L1535.09 395.325L1537.06 395.675L1549.31 326.675L1547.34 326.325ZM1536.07 396.5H1602.57V394.5H1536.07V396.5ZM1603.56 395.675L1615.81 326.675L1613.84 326.325L1601.59 395.325L1603.56 395.675ZM1614.82 327.5H1657.57V325.5H1614.82V327.5ZM1772.18 471L1773.17 470.841L1773.04 470H1772.18V471ZM1706.68 471V470H1706.08L1705.8 470.541L1706.68 471ZM1690.68 502V503H1691.29L1691.57 502.459L1690.68 502ZM1645.93 502L1645.05 501.526L1644.26 503H1645.93V502ZM1740.43 326.5V325.5H1739.84L1739.55 326.026L1740.43 326.5ZM1789.93 326.5L1790.92 326.318L1790.77 325.5H1789.93V326.5ZM1822.43 502V503H1823.64L1823.42 501.818L1822.43 502ZM1777.18 502L1776.2 502.159L1776.33 503H1777.18V502ZM1767.18 438.5V439.5H1768.35L1768.17 438.344L1767.18 438.5ZM1756.93 373.5L1757.92 373.344L1757.45 370.325L1756.05 373.042L1756.93 373.5ZM1723.43 438.5L1722.55 438.042L1721.79 439.5H1723.43V438.5ZM1772.18 470H1706.68V472H1772.18V470ZM1705.8 470.541L1689.8 501.541L1691.57 502.459L1707.57 471.459L1705.8 470.541ZM1690.68 501H1645.93V503H1690.68V501ZM1646.82 502.474L1741.32 326.974L1739.55 326.026L1645.05 501.526L1646.82 502.474ZM1740.43 327.5H1789.93V325.5H1740.43V327.5ZM1788.95 326.682L1821.45 502.182L1823.42 501.818L1790.92 326.318L1788.95 326.682ZM1822.43 501H1777.18V503H1822.43V501ZM1778.17 501.841L1773.17 470.841L1771.2 471.159L1776.2 502.159L1778.17 501.841ZM1768.17 438.344L1757.92 373.344L1755.95 373.656L1766.2 438.656L1768.17 438.344ZM1756.05 373.042L1722.55 438.042L1724.32 438.958L1757.82 373.958L1756.05 373.042ZM1723.43 439.5H1767.18V437.5H1723.43V439.5ZM2056.87 326.5L2057.86 326.668L2058.06 325.5H2056.87V326.5ZM2051.12 360.25V361.25H2051.97L2052.11 360.418L2051.12 360.25ZM2004.37 360.25V359.25H2003.53L2003.39 360.076L2004.37 360.25ZM1979.37 502V503H1980.21L1980.36 502.174L1979.37 502ZM1936.62 502L1935.64 501.826L1935.43 503H1936.62V502ZM1961.62 360.25L1962.61 360.424L1962.81 359.25H1961.62V360.25ZM1915.12 360.25L1914.14 360.075L1913.93 361.25H1915.12V360.25ZM1921.12 326.5V325.5H1920.28L1920.14 326.325L1921.12 326.5ZM2055.89 326.332L2050.14 360.082L2052.11 360.418L2057.86 326.668L2055.89 326.332ZM2051.12 359.25H2004.37V361.25H2051.12V359.25ZM2003.39 360.076L1978.39 501.826L1980.36 502.174L2005.36 360.424L2003.39 360.076ZM1979.37 501H1936.62V503H1979.37V501ZM1937.61 502.174L1962.61 360.424L1960.64 360.076L1935.64 501.826L1937.61 502.174ZM1961.62 359.25H1915.12V361.25H1961.62V359.25ZM1916.11 360.425L1922.11 326.675L1920.14 326.325L1914.14 360.075L1916.11 360.425ZM1921.12 327.5H2056.87V325.5H1921.12V327.5ZM2115.08 360.25V359.25H2114.23L2114.09 360.081L2115.08 360.25ZM2108.83 396.75L2107.84 396.581L2107.64 397.75H2108.83V396.75ZM2166.08 396.75L2167.06 396.926L2167.27 395.75H2166.08V396.75ZM2160.33 429V430H2161.16L2161.31 429.176L2160.33 429ZM2103.08 429V428H2102.24L2102.09 428.824L2103.08 429ZM2096.08 468.25L2095.09 468.074L2094.88 469.25H2096.08V468.25ZM2160.83 468.25L2161.81 468.425L2162.02 467.25H2160.83V468.25ZM2154.83 502V503H2155.67L2155.81 502.175L2154.83 502ZM2047.33 502L2046.34 501.826L2046.14 503H2047.33V502ZM2078.33 326.5V325.5H2077.49L2077.34 326.326L2078.33 326.5ZM2185.83 326.5L2186.81 326.675L2187.02 325.5H2185.83V326.5ZM2179.83 360.25V361.25H2180.67L2180.81 360.425L2179.83 360.25ZM2114.09 360.081L2107.84 396.581L2109.81 396.919L2116.06 360.419L2114.09 360.081ZM2108.83 397.75H2166.08V395.75H2108.83V397.75ZM2165.09 396.574L2159.34 428.824L2161.31 429.176L2167.06 396.926L2165.09 396.574ZM2160.33 428H2103.08V430H2160.33V428ZM2102.09 428.824L2095.09 468.074L2097.06 468.426L2104.06 429.176L2102.09 428.824ZM2096.08 469.25H2160.83V467.25H2096.08V469.25ZM2159.84 468.075L2153.84 501.825L2155.81 502.175L2161.81 468.425L2159.84 468.075ZM2154.83 501H2047.33V503H2154.83V501ZM2048.31 502.174L2079.31 326.674L2077.34 326.326L2046.34 501.826L2048.31 502.174ZM2078.33 327.5H2185.83V325.5H2078.33V327.5ZM2184.84 326.325L2178.84 360.075L2180.81 360.425L2186.81 326.675L2184.84 326.325ZM2179.83 359.25H2115.08V361.25H2179.83V359.25ZM2297.33 471L2298.32 470.841L2298.18 470H2297.33V471ZM2231.83 471V470H2231.22L2230.94 470.541L2231.83 471ZM2215.83 502V503H2216.44L2216.72 502.459L2215.83 502ZM2171.08 502L2170.2 501.526L2169.41 503H2171.08V502ZM2265.58 326.5V325.5H2264.98L2264.7 326.026L2265.58 326.5ZM2315.08 326.5L2316.06 326.318L2315.91 325.5H2315.08V326.5ZM2347.58 502V503H2348.78L2348.56 501.818L2347.58 502ZM2302.33 502L2301.34 502.159L2301.48 503H2302.33V502ZM2292.33 438.5V439.5H2293.5L2293.32 438.344L2292.33 438.5ZM2282.08 373.5L2283.07 373.344L2282.59 370.325L2281.19 373.042L2282.08 373.5ZM2248.58 438.5L2247.69 438.042L2246.94 439.5H2248.58V438.5ZM2297.33 470H2231.83V472H2297.33V470ZM2230.94 470.541L2214.94 501.541L2216.72 502.459L2232.72 471.459L2230.94 470.541ZM2215.83 501H2171.08V503H2215.83V501ZM2171.96 502.474L2266.46 326.974L2264.7 326.026L2170.2 501.526L2171.96 502.474ZM2265.58 327.5H2315.08V325.5H2265.58V327.5ZM2314.1 326.682L2346.6 502.182L2348.56 501.818L2316.06 326.318L2314.1 326.682ZM2347.58 501H2302.33V503H2347.58V501ZM2303.32 501.841L2298.32 470.841L2296.34 471.159L2301.34 502.159L2303.32 501.841ZM2293.32 438.344L2283.07 373.344L2281.09 373.656L2291.34 438.656L2293.32 438.344ZM2281.19 373.042L2247.69 438.042L2249.47 438.958L2282.97 373.958L2281.19 373.042ZM2248.58 439.5H2292.33V437.5H2248.58V439.5ZM2596.66 326.5L2597.64 326.674L2597.85 325.5H2596.66V326.5ZM2565.66 502V503H2566.5L2566.64 502.174L2565.66 502ZM2522.91 502L2521.92 501.825L2521.71 503H2522.91V502ZM2541.66 396.75L2542.64 396.925L2540.78 396.267L2541.66 396.75ZM2483.66 502V503H2484.25L2484.53 502.483L2483.66 502ZM2449.16 502L2448.18 502.195L2448.34 503H2449.16V502ZM2428.16 396.25L2429.14 396.055L2427.17 396.078L2428.16 396.25ZM2409.66 502V503H2410.5L2410.64 502.172L2409.66 502ZM2366.91 502L2365.92 501.826L2365.72 503H2366.91V502ZM2397.91 326.5V325.5H2397.07L2396.92 326.326L2397.91 326.5ZM2448.41 326.5L2449.38 326.275L2449.2 325.5H2448.41V326.5ZM2476.41 448L2475.43 448.225L2476 450.703L2477.27 448.499L2476.41 448ZM2546.41 326.5V325.5H2545.83L2545.54 326.001L2546.41 326.5ZM2595.67 326.326L2564.67 501.826L2566.64 502.174L2597.64 326.674L2595.67 326.326ZM2565.66 501H2522.91V503H2565.66V501ZM2523.89 502.175L2542.64 396.925L2540.67 396.575L2521.92 501.825L2523.89 502.175ZM2540.78 396.267L2482.78 501.517L2484.53 502.483L2542.53 397.233L2540.78 396.267ZM2483.66 501H2449.16V503H2483.66V501ZM2450.14 501.805L2429.14 396.055L2427.18 396.445L2448.18 502.195L2450.14 501.805ZM2427.17 396.078L2408.67 501.828L2410.64 502.172L2429.14 396.422L2427.17 396.078ZM2409.66 501H2366.91V503H2409.66V501ZM2367.89 502.174L2398.89 326.674L2396.92 326.326L2365.92 501.826L2367.89 502.174ZM2397.91 327.5H2448.41V325.5H2397.91V327.5ZM2447.43 326.725L2475.43 448.225L2477.38 447.775L2449.38 326.275L2447.43 326.725ZM2477.27 448.499L2547.27 326.999L2545.54 326.001L2475.54 447.501L2477.27 448.499ZM2546.41 327.5H2596.66V325.5H2546.41V327.5ZM1158 789L1158.98 789.191L1158.98 789.181L1158.99 789.171L1158 789ZM1177.25 742.75L1176.44 742.159L1176.44 742.161L1177.25 742.75ZM1214.25 711L1214.71 711.89L1214.71 711.886L1214.25 711ZM1312.25 716L1311.6 716.759L1311.6 716.763L1312.25 716ZM1334.25 761V762H1335.34L1335.25 760.913L1334.25 761ZM1287.25 761L1286.29 761.289L1286.51 762H1287.25V761ZM1275.25 744.75L1274.69 745.578L1274.7 745.588L1274.72 745.597L1275.25 744.75ZM1220 752.75L1220.68 753.482L1220.69 753.476L1220 752.75ZM1201.5 789L1202.48 789.176L1202.48 789.173L1201.5 789ZM1210 829L1209.28 829.689L1209.28 829.689L1210 829ZM1259.5 833.5L1259.03 832.618L1259.02 832.623L1259.5 833.5ZM1277.5 817V816H1276.97L1276.67 816.441L1277.5 817ZM1324.5 817L1325.42 817.402L1326.03 816H1324.5V817ZM1286.75 862L1287.29 862.841L1287.3 862.837L1286.75 862ZM1191 869.5L1190.54 870.386L1190.54 870.386L1191 869.5ZM1165.25 844.75L1164.38 845.24L1164.38 845.24L1165.25 844.75ZM1158.99 789.171C1161.96 771.98 1168.32 756.708 1178.06 743.339L1176.44 742.161C1166.51 755.792 1160.04 771.353 1157.01 788.829L1158.99 789.171ZM1178.06 743.341C1187.97 729.796 1200.18 719.317 1214.71 711.89L1213.79 710.11C1198.99 717.683 1186.53 728.37 1176.44 742.159L1178.06 743.341ZM1214.71 711.886C1229.23 704.296 1244.91 700.5 1261.75 700.5V698.5C1244.59 698.5 1228.6 702.37 1213.79 710.114L1214.71 711.886ZM1261.75 700.5C1282.4 700.5 1298.99 705.948 1311.6 716.759L1312.9 715.241C1299.85 704.052 1282.76 698.5 1261.75 698.5V700.5ZM1311.6 716.763C1324.38 727.572 1331.61 742.316 1333.25 761.087L1335.25 760.913C1333.56 741.684 1326.12 726.428 1312.9 715.237L1311.6 716.763ZM1334.25 760H1287.25V762H1334.25V760ZM1288.21 760.711C1285.98 753.335 1281.84 747.71 1275.78 743.903L1274.72 745.597C1280.33 749.123 1284.19 754.332 1286.29 761.289L1288.21 760.711ZM1275.81 743.922C1269.95 739.954 1262.74 738 1254.25 738V740C1262.43 740 1269.22 741.879 1274.69 745.578L1275.81 743.922ZM1254.25 738C1240.82 738 1229.16 742.684 1219.31 752.024L1220.69 753.476C1230.17 744.483 1241.34 740 1254.25 740V738ZM1219.32 752.018C1209.47 761.19 1203.21 773.483 1200.52 788.827L1202.48 789.173C1205.12 774.184 1211.2 762.31 1220.68 753.482L1219.32 752.018ZM1200.52 788.824C1199.68 793.53 1199.25 797.675 1199.25 801.25H1201.25C1201.25 797.825 1201.66 793.803 1202.48 789.176L1200.52 788.824ZM1199.25 801.25C1199.25 813.109 1202.56 822.628 1209.28 829.689L1210.72 828.311C1204.44 821.705 1201.25 812.724 1201.25 801.25H1199.25ZM1209.28 829.689C1216 836.76 1225.2 840.25 1236.75 840.25V838.25C1225.63 838.25 1217 834.906 1210.72 828.311L1209.28 829.689ZM1236.75 840.25C1245.08 840.25 1252.83 838.293 1259.98 834.377L1259.02 832.623C1252.17 836.374 1244.75 838.25 1236.75 838.25V840.25ZM1259.97 834.382C1267.29 830.467 1273.41 824.852 1278.33 817.559L1276.67 816.441C1271.92 823.481 1266.04 828.867 1259.03 832.618L1259.97 834.382ZM1277.5 818H1324.5V816H1277.5V818ZM1323.58 816.598C1315.33 835.426 1302.87 850.273 1286.2 861.163L1287.3 862.837C1304.3 851.727 1317.01 836.574 1325.42 817.402L1323.58 816.598ZM1286.21 861.159C1269.54 871.884 1250.9 877.25 1230.25 877.25V879.25C1251.27 879.25 1270.29 873.782 1287.29 862.841L1286.21 861.159ZM1230.25 877.25C1215.38 877.25 1202.46 874.359 1191.46 868.614L1190.54 870.386C1201.87 876.307 1215.12 879.25 1230.25 879.25V877.25ZM1191.46 868.614C1180.46 862.867 1172.02 854.752 1166.12 844.26L1164.38 845.24C1170.48 856.081 1179.2 864.466 1190.54 870.386L1191.46 868.614ZM1166.12 844.26C1160.22 833.765 1157.25 821.522 1157.25 807.5H1155.25C1155.25 821.811 1158.28 834.402 1164.38 845.24L1166.12 844.26ZM1157.25 807.5C1157.25 801.228 1157.83 795.126 1158.98 789.191L1157.02 788.809C1155.84 794.874 1155.25 801.105 1155.25 807.5H1157.25ZM1384.18 869.5L1383.7 870.375L1383.7 870.378L1384.18 869.5ZM1358.18 843.5L1359.06 843.017L1359.06 843.017L1358.18 843.5ZM1362.18 750.25L1363.06 750.733L1363.06 750.729L1362.18 750.25ZM1398.93 712.5L1398.44 711.631L1398.43 711.633L1398.93 712.5ZM1492.18 708.25L1491.7 709.128L1491.71 709.134L1492.18 708.25ZM1518.43 734L1517.55 734.483L1517.56 734.489L1518.43 734ZM1514.43 827.25L1515.31 827.729L1515.31 827.726L1514.43 827.25ZM1477.43 865.25L1477.92 866.119L1477.93 866.115L1477.43 865.25ZM1458.93 830.75L1459.49 831.577L1459.49 831.577L1458.93 830.75ZM1478.18 808L1477.28 807.565L1477.28 807.572L1478.18 808ZM1475.18 748.5L1475.9 747.802L1475.9 747.802L1475.18 748.5ZM1417.93 746.75L1417.37 745.918L1417.37 745.923L1417.93 746.75ZM1398.43 769.5L1397.53 769.059L1397.53 769.066L1398.43 769.5ZM1401.68 829L1400.96 829.69L1400.96 829.698L1401.68 829ZM1423.43 877.75C1408.74 877.75 1395.82 874.697 1384.66 868.622L1383.7 870.378C1395.2 876.636 1408.45 879.75 1423.43 879.75V877.75ZM1384.66 868.625C1373.66 862.549 1365.13 854.018 1359.06 843.017L1357.3 843.983C1363.56 855.315 1372.36 864.118 1383.7 870.375L1384.66 868.625ZM1359.06 843.017C1352.98 832.017 1349.93 819.354 1349.93 805H1347.93C1347.93 819.646 1351.05 832.65 1357.3 843.983L1359.06 843.017ZM1349.93 805C1349.93 784.648 1354.31 766.568 1363.06 750.733L1361.3 749.767C1352.38 765.932 1347.93 784.352 1347.93 805H1349.93ZM1363.06 750.729C1371.8 734.721 1383.92 722.273 1399.43 713.367L1398.43 711.633C1382.6 720.727 1370.22 733.445 1361.3 749.771L1363.06 750.729ZM1399.42 713.369C1415.09 704.463 1432.84 700 1452.68 700V698C1432.52 698 1414.43 702.537 1398.44 711.631L1399.42 713.369ZM1452.68 700C1467.54 700 1480.54 703.054 1491.7 709.128L1492.66 707.372C1481.16 701.113 1467.82 698 1452.68 698V700ZM1491.71 709.134C1502.87 715.043 1511.48 723.488 1517.55 734.483L1519.31 733.517C1513.04 722.179 1504.15 713.457 1492.65 707.366L1491.71 709.134ZM1517.56 734.489C1523.63 745.32 1526.68 757.814 1526.68 772H1528.68C1528.68 757.519 1525.56 744.68 1519.3 733.511L1517.56 734.489ZM1526.68 772C1526.68 792.352 1522.3 810.602 1513.55 826.774L1515.31 827.726C1524.23 811.231 1528.68 792.648 1528.68 772H1526.68ZM1513.55 826.771C1504.81 842.778 1492.6 855.31 1476.93 864.385L1477.93 866.115C1493.92 856.856 1506.39 844.056 1515.31 827.729L1513.55 826.771ZM1476.94 864.381C1461.27 873.286 1443.44 877.75 1423.43 877.75V879.75C1443.75 879.75 1461.92 875.214 1477.92 866.119L1476.94 864.381ZM1429.93 840.25C1441.11 840.25 1450.98 837.367 1459.49 831.577L1458.37 829.923C1450.22 835.467 1440.75 838.25 1429.93 838.25V840.25ZM1459.49 831.577C1467.98 825.806 1474.51 818.082 1479.08 808.428L1477.28 807.572C1472.85 816.918 1466.55 824.361 1458.37 829.923L1459.49 831.577ZM1479.08 808.435C1483.82 798.627 1486.18 788.061 1486.18 776.75H1484.18C1484.18 787.772 1481.88 798.04 1477.28 807.565L1479.08 808.435ZM1486.18 776.75C1486.18 764.559 1482.79 754.867 1475.9 747.802L1474.46 749.198C1480.9 755.8 1484.18 764.941 1484.18 776.75H1486.18ZM1475.9 747.802C1468.99 740.729 1459.38 737.25 1447.18 737.25V739.25C1458.98 739.25 1468.03 742.605 1474.46 749.198L1475.9 747.802ZM1447.18 737.25C1436 737.25 1426.05 740.133 1417.37 745.918L1418.48 747.582C1426.81 742.033 1436.36 739.25 1447.18 739.25V737.25ZM1417.37 745.923C1408.88 751.692 1402.27 759.412 1397.53 769.059L1399.33 769.941C1403.92 760.588 1410.31 753.141 1418.49 747.577L1417.37 745.923ZM1397.53 769.066C1392.96 778.547 1390.68 789.031 1390.68 800.5H1392.68C1392.68 789.303 1394.9 779.12 1399.33 769.934L1397.53 769.066ZM1390.68 800.5C1390.68 812.692 1394.07 822.461 1400.96 829.69L1402.4 828.31C1395.95 821.539 1392.68 812.308 1392.68 800.5H1390.68ZM1400.96 829.698C1407.87 836.774 1417.57 840.25 1429.93 840.25V838.25C1417.95 838.25 1408.83 834.893 1402.4 828.302L1400.96 829.698ZM1766.21 701.5L1767.2 701.674L1767.41 700.5H1766.21V701.5ZM1735.21 877V878H1736.05L1736.2 877.174L1735.21 877ZM1692.46 877L1691.48 876.825L1691.27 878H1692.46V877ZM1711.21 771.75L1712.2 771.925L1710.34 771.267L1711.21 771.75ZM1653.21 877V878H1653.8L1654.09 877.483L1653.21 877ZM1618.71 877L1617.73 877.195L1617.89 878H1618.71V877ZM1597.71 771.25L1598.69 771.055L1596.73 771.078L1597.71 771.25ZM1579.21 877V878H1580.05L1580.2 877.172L1579.21 877ZM1536.46 877L1535.48 876.826L1535.27 878H1536.46V877ZM1567.46 701.5V700.5H1566.62L1566.48 701.326L1567.46 701.5ZM1617.96 701.5L1618.94 701.275L1618.76 700.5H1617.96V701.5ZM1645.96 823L1644.99 823.225L1645.56 825.703L1646.83 823.499L1645.96 823ZM1715.96 701.5V700.5H1715.38L1715.1 701.001L1715.96 701.5ZM1765.23 701.326L1734.23 876.826L1736.2 877.174L1767.2 701.674L1765.23 701.326ZM1735.21 876H1692.46V878H1735.21V876ZM1693.45 877.175L1712.2 771.925L1710.23 771.575L1691.48 876.825L1693.45 877.175ZM1710.34 771.267L1652.34 876.517L1654.09 877.483L1712.09 772.233L1710.34 771.267ZM1653.21 876H1618.71V878H1653.21V876ZM1619.69 876.805L1598.69 771.055L1596.73 771.445L1617.73 877.195L1619.69 876.805ZM1596.73 771.078L1578.23 876.828L1580.2 877.172L1598.7 771.422L1596.73 771.078ZM1579.21 876H1536.46V878H1579.21V876ZM1537.45 877.174L1568.45 701.674L1566.48 701.326L1535.48 876.826L1537.45 877.174ZM1567.46 702.5H1617.96V700.5H1567.46V702.5ZM1616.99 701.725L1644.99 823.225L1646.94 822.775L1618.94 701.275L1616.99 701.725ZM1646.83 823.499L1716.83 701.999L1715.1 701.001L1645.1 822.501L1646.83 823.499ZM1715.96 702.5H1766.21V700.5H1715.96V702.5ZM1920.71 758L1919.72 757.813L1919.72 757.826L1919.72 757.838L1920.71 758ZM1908.96 786L1909.76 786.595L1909.76 786.587L1908.96 786ZM1883.71 806.25L1883.27 805.35L1883.26 805.353L1883.71 806.25ZM1819.96 814V813H1819.12L1818.97 813.824L1819.96 814ZM1808.71 877V878H1809.54L1809.69 877.176L1808.71 877ZM1765.96 877L1764.97 876.826L1764.76 878H1765.96V877ZM1796.96 701.5V700.5H1796.12L1795.97 701.326L1796.96 701.5ZM1907.71 713.75L1907.05 714.503L1907.05 714.509L1907.71 713.75ZM1877.21 758L1878.19 758.186L1878.19 758.155L1878.2 758.124L1877.21 758ZM1872.46 740L1871.79 740.743L1871.81 740.761L1871.83 740.777L1872.46 740ZM1833.71 735.5V734.5H1832.86L1832.72 735.33L1833.71 735.5ZM1825.96 780.5L1824.97 780.33L1824.77 781.5H1825.96V780.5ZM1919.72 757.838C1918.08 767.848 1914.22 777.036 1908.15 785.413L1909.76 786.587C1916.02 777.964 1920 768.485 1921.69 758.162L1919.72 757.838ZM1908.15 785.405C1902.09 793.591 1893.81 800.244 1883.27 805.35L1884.14 807.15C1894.93 801.923 1903.48 795.076 1909.76 786.595L1908.15 785.405ZM1883.26 805.353C1872.93 810.438 1860.67 813 1846.46 813V815C1860.91 815 1873.48 812.395 1884.15 807.147L1883.26 805.353ZM1846.46 813H1819.96V815H1846.46V813ZM1818.97 813.824L1807.72 876.824L1809.69 877.176L1820.94 814.176L1818.97 813.824ZM1808.71 876H1765.96V878H1808.71V876ZM1766.94 877.174L1797.94 701.674L1795.97 701.326L1764.97 876.826L1766.94 877.174ZM1796.96 702.5H1866.21V700.5H1796.96V702.5ZM1866.21 702.5C1884.41 702.5 1897.97 706.557 1907.05 714.503L1908.36 712.997C1898.78 704.61 1884.67 700.5 1866.21 700.5V702.5ZM1907.05 714.509C1916.14 722.294 1920.71 732.918 1920.71 746.5H1922.71C1922.71 732.416 1917.94 721.206 1908.36 712.991L1907.05 714.509ZM1920.71 746.5C1920.71 750.614 1920.38 754.384 1919.72 757.813L1921.69 758.187C1922.37 754.616 1922.71 750.719 1922.71 746.5H1920.71ZM1848.96 781.5C1857.11 781.5 1863.7 779.589 1868.64 775.657C1873.58 771.721 1876.74 765.856 1878.19 758.186L1876.22 757.814C1874.84 765.144 1871.87 770.529 1867.39 774.093C1862.91 777.661 1856.8 779.5 1848.96 779.5V781.5ZM1878.2 758.124C1878.53 755.455 1878.71 753.484 1878.71 752.25H1876.71C1876.71 753.349 1876.55 755.211 1876.21 757.876L1878.2 758.124ZM1878.71 752.25C1878.71 746.677 1876.86 742.282 1873.08 739.223L1871.83 740.777C1875.05 743.385 1876.71 747.156 1876.71 752.25H1878.71ZM1873.12 739.257C1869.53 736.02 1864.07 734.5 1856.96 734.5V736.5C1863.84 736.5 1868.72 737.98 1871.79 740.743L1873.12 739.257ZM1856.96 734.5H1833.71V736.5H1856.96V734.5ZM1832.72 735.33L1824.97 780.33L1826.94 780.67L1834.69 735.67L1832.72 735.33ZM1825.96 781.5H1848.96V779.5H1825.96V781.5ZM2036.71 846L2037.7 845.841L2037.56 845H2036.71V846ZM1971.21 846V845H1970.6L1970.32 845.541L1971.21 846ZM1955.21 877V878H1955.82L1956.1 877.459L1955.21 877ZM1910.46 877L1909.58 876.526L1908.79 878H1910.46V877ZM2004.96 701.5V700.5H2004.36L2004.08 701.026L2004.96 701.5ZM2054.46 701.5L2055.44 701.318L2055.29 700.5H2054.46V701.5ZM2086.96 877V878H2088.16L2087.94 876.818L2086.96 877ZM2041.71 877L2040.72 877.159L2040.86 878H2041.71V877ZM2031.71 813.5V814.5H2032.88L2032.7 813.344L2031.71 813.5ZM2021.46 748.5L2022.45 748.344L2021.97 745.325L2020.57 748.042L2021.46 748.5ZM1987.96 813.5L1987.07 813.042L1986.32 814.5H1987.96V813.5ZM2036.71 845H1971.21V847H2036.71V845ZM1970.32 845.541L1954.32 876.541L1956.1 877.459L1972.1 846.459L1970.32 845.541ZM1955.21 876H1910.46V878H1955.21V876ZM1911.34 877.474L2005.84 701.974L2004.08 701.026L1909.58 876.526L1911.34 877.474ZM2004.96 702.5H2054.46V700.5H2004.96V702.5ZM2053.48 701.682L2085.98 877.182L2087.94 876.818L2055.44 701.318L2053.48 701.682ZM2086.96 876H2041.71V878H2086.96V876ZM2042.7 876.841L2037.7 845.841L2035.72 846.159L2040.72 877.159L2042.7 876.841ZM2032.7 813.344L2022.45 748.344L2020.47 748.656L2030.72 813.656L2032.7 813.344ZM2020.57 748.042L1987.07 813.042L1988.85 813.958L2022.35 748.958L2020.57 748.042ZM1987.96 814.5H2031.71V812.5H1987.96V814.5ZM2263.29 877V878H2264.13L2264.27 877.174L2263.29 877ZM2220.54 877L2219.64 877.435L2219.91 878H2220.54V877ZM2168.29 768.75L2169.19 768.315L2167.84 765.531L2167.3 768.575L2168.29 768.75ZM2149.04 877V878H2149.87L2150.02 877.175L2149.04 877ZM2106.29 877L2105.3 876.826L2105.09 878H2106.29V877ZM2137.29 701.5V700.5H2136.45L2136.3 701.326L2137.29 701.5ZM2180.04 701.5L2180.94 701.067L2180.67 700.5H2180.04V701.5ZM2232.29 810.25L2231.39 810.683L2232.73 813.482L2233.27 810.424L2232.29 810.25ZM2251.54 701.5V700.5H2250.7L2250.55 701.326L2251.54 701.5ZM2294.29 701.5L2295.27 701.674L2295.48 700.5H2294.29V701.5ZM2263.29 876H2220.54V878H2263.29V876ZM2221.44 876.565L2169.19 768.315L2167.39 769.185L2219.64 877.435L2221.44 876.565ZM2167.3 768.575L2148.05 876.825L2150.02 877.175L2169.27 768.925L2167.3 768.575ZM2149.04 876H2106.29V878H2149.04V876ZM2107.27 877.174L2138.27 701.674L2136.3 701.326L2105.3 876.826L2107.27 877.174ZM2137.29 702.5H2180.04V700.5H2137.29V702.5ZM2179.14 701.933L2231.39 810.683L2233.19 809.817L2180.94 701.067L2179.14 701.933ZM2233.27 810.424L2252.52 701.674L2250.55 701.326L2231.3 810.076L2233.27 810.424ZM2251.54 702.5H2294.29V700.5H2251.54V702.5ZM2293.3 701.326L2262.3 876.826L2264.27 877.174L2295.27 701.674L2293.3 701.326ZM2475.78 701.5L2476.6 702.069L2477.68 700.5H2475.78V701.5ZM2394.53 819L2393.7 818.431L2393.58 818.609L2393.54 818.822L2394.53 819ZM2384.03 877V878H2384.86L2385.01 877.178L2384.03 877ZM2341.28 877L2340.29 876.822L2340.08 878H2341.28V877ZM2351.78 819L2352.76 819.178L2352.81 818.922L2352.72 818.676L2351.78 819ZM2311.53 701.5V700.5H2310.13L2310.58 701.824L2311.53 701.5ZM2360.03 701.5L2360.99 701.224L2360.78 700.5H2360.03V701.5ZM2381.03 774.75L2380.06 775.026L2380.68 777.157L2381.87 775.288L2381.03 774.75ZM2427.78 701.5V700.5H2427.23L2426.93 700.962L2427.78 701.5ZM2474.95 700.931L2393.7 818.431L2395.35 819.569L2476.6 702.069L2474.95 700.931ZM2393.54 818.822L2383.04 876.822L2385.01 877.178L2395.51 819.178L2393.54 818.822ZM2384.03 876H2341.28V878H2384.03V876ZM2342.26 877.178L2352.76 819.178L2350.79 818.822L2340.29 876.822L2342.26 877.178ZM2352.72 818.676L2312.47 701.176L2310.58 701.824L2350.83 819.324L2352.72 818.676ZM2311.53 702.5H2360.03V700.5H2311.53V702.5ZM2359.06 701.776L2380.06 775.026L2381.99 774.474L2360.99 701.224L2359.06 701.776ZM2381.87 775.288L2428.62 702.038L2426.93 700.962L2380.18 774.212L2381.87 775.288ZM2427.78 702.5H2475.78V700.5H2427.78V702.5Z" fill="black"/>
</g>
<g filter="url(#filter1_d_10_0)">
<path d="M504.067 628.589L344.559 473.606L500.674 101.419L655.657 469.081L504.067 628.589Z" fill="#818181"/>
<path d="M127.354 1003.04L501.804 626.331L880.778 1001.91L906.797 1063L501.804 894.441L102.466 1063L127.354 1003.04Z" fill="black"/>
<path d="M655.654 469.074L504.064 628.583L906.796 1062.99L655.654 469.074Z" fill="#717171"/>
<path d="M504.066 628.588L344.557 473.604L102.466 1062.99L504.066 628.588Z" fill="#555555"/>
</g>
<defs>
<filter id="filter0_d_10_0" x="931.601" y="270.5" width="1733.06" height="692.25" filterUnits="userSpaceOnUse" color-interpolation-filters="sRGB">
<feFlood flood-opacity="0" result="BackgroundImageFix"/>
<feColorMatrix in="SourceAlpha" type="matrix" values="0 0 0 0 0 0 0 0 0 0 0 0 0 0 0 0 0 0 127 0" result="hardAlpha"/>
<feOffset dx="-2" dy="14"/>
<feGaussianBlur stdDeviation="35"/>
<feComposite in2="hardAlpha" operator="out"/>
<feColorMatrix type="matrix" values="0 0 0 0 0 0 0 0 0 0 0 0 0 0 0 0 0 0 0.2 0"/>
<feBlend mode="normal" in2="BackgroundImageFix" result="effect1_dropShadow_10_0"/>
<feBlend mode="normal" in="SourceGraphic" in2="effect1_dropShadow_10_0" result="shape"/>
</filter>
<filter id="filter1_d_10_0" x="0.466309" y="15.4189" width="1004.33" height="1161.58" filterUnits="userSpaceOnUse" color-interpolation-filters="sRGB">
<feFlood flood-opacity="0" result="BackgroundImageFix"/>
<feColorMatrix in="SourceAlpha" type="matrix" values="0 0 0 0 0 0 0 0 0 0 0 0 0 0 0 0 0 0 127 0" result="hardAlpha"/>
<feOffset dx="-2" dy="14"/>
<feGaussianBlur stdDeviation="50"/>
<feColorMatrix type="matrix" values="0 0 0 0 0.05 0 0 0 0 0.05 0 0 0 0 0.05 0 0 0 0.31 0"/>
<feBlend mode="normal" in2="BackgroundImageFix" result="effect1_dropShadow_10_0"/>
<feBlend mode="normal" in="SourceGraphic" in2="effect1_dropShadow_10_0" result="shape"/>
</filter>
<linearGradient id="paint0_linear_10_0" x1="761.947" y1="104.5" x2="2807.08" y2="981.579" gradientUnits="userSpaceOnUse">
<stop stop-color="#555555"/>
<stop offset="0.477081"/>
<stop offset="1" stop-color="#717171"/>
</linearGradient>
</defs>
</svg>
