<svg width="39" height="39" viewBox="0 0 39 39" fill="none" xmlns="http://www.w3.org/2000/svg">
<path d="M13.1729 33.0077C26.0471 33.0077 33.0907 22.339 33.0907 13.0899C33.0907 12.79 33.084 12.4834 33.0707 12.1835C34.4409 11.1926 35.6233 9.96521 36.5625 8.55904C35.2864 9.1268 33.9315 9.49759 32.5441 9.65877C34.0049 8.78314 35.0987 7.40757 35.6227 5.78705C34.2485 6.60149 32.7456 7.176 31.1785 7.48597C30.1226 6.36404 28.7265 5.62119 27.2061 5.37227C25.6857 5.12334 24.1256 5.38222 22.7671 6.10886C21.4086 6.8355 20.3272 7.98945 19.6903 9.39228C19.0534 10.7951 18.8963 12.3687 19.2434 13.8697C16.4607 13.7301 13.7385 13.0072 11.2531 11.748C8.76773 10.4888 6.57472 8.72133 4.81625 6.56019C3.92251 8.10112 3.64902 9.92453 4.05137 11.6599C4.45373 13.3952 5.50173 14.9122 6.98239 15.9026C5.8708 15.8673 4.78356 15.568 3.8105 15.0295V15.1161C3.8095 16.7332 4.36855 18.3007 5.3926 19.5522C6.41665 20.8037 7.84251 21.662 9.42779 21.9811C8.39808 22.2628 7.31735 22.3039 6.26923 22.1011C6.71657 23.4918 7.58692 24.7081 8.75883 25.5804C9.93074 26.4526 11.3457 26.9372 12.8063 26.9665C10.3267 28.9143 7.26359 29.9708 4.11042 29.9658C3.55124 29.965 2.9926 29.9307 2.4375 29.8632C5.64078 31.9182 9.36705 33.0097 13.1729 33.0077Z" fill="black"/>
</svg>
