<?xml version="1.0" standalone="no"?>
<!DOCTYPE svg PUBLIC "-//W3C//DTD SVG 20010904//EN"
 "http://www.w3.org/TR/2001/REC-SVG-20010904/DTD/svg10.dtd">
<svg version="1.0" xmlns="http://www.w3.org/2000/svg"
 width="500.000000pt" height="500.000000pt" viewBox="0 0 500.000000 500.000000"
 preserveAspectRatio="xMidYMid meet">
<metadata>
Created by potrace 1.16, written by Peter Selinger 2001-2019
</metadata>
<g transform="translate(0.000000,500.000000) scale(0.100000,-0.100000)"
fill="#000000" stroke="none">
<path d="M2449 4592 c-8 -15 -16 -29 -19 -32 -3 -3 -14 -21 -24 -40 -11 -19
-30 -54 -42 -78 -13 -23 -40 -67 -59 -97 -19 -31 -35 -57 -35 -59 0 -3 -47
-84 -105 -180 -58 -97 -105 -178 -105 -181 0 -2 -16 -29 -35 -59 -19 -30 -35
-60 -35 -66 0 -5 -4 -10 -10 -10 -5 0 -10 -5 -10 -11 0 -6 -15 -36 -34 -67
-101 -170 -156 -263 -156 -267 0 -3 -16 -29 -35 -60 -19 -30 -46 -74 -59 -97
-12 -24 -31 -59 -42 -78 -10 -19 -22 -36 -26 -38 -5 -2 -8 -8 -8 -13 0 -5 -17
-38 -39 -72 -73 -118 -165 -278 -183 -319 -7 -16 -16 -28 -20 -28 -4 0 -8 -7
-8 -15 0 -8 -4 -15 -8 -15 -4 0 -13 -12 -19 -27 -12 -29 -32 -64 -109 -191
-24 -40 -44 -75 -44 -77 0 -3 -16 -29 -35 -59 -19 -30 -35 -60 -35 -66 0 -5
-4 -10 -8 -10 -4 0 -13 -12 -20 -27 -15 -35 -48 -93 -256 -443 -15 -25 -32
-57 -39 -72 -6 -16 -15 -28 -19 -28 -4 0 -8 -7 -8 -15 0 -8 -3 -15 -7 -15 -5
0 -17 -20 -28 -45 -11 -25 -23 -45 -27 -45 -5 0 -8 -5 -8 -10 0 -10 -69 -131
-125 -220 -12 -19 -36 -61 -54 -92 l-32 -58 328 0 c292 0 331 2 353 17 14 9
27 19 30 22 3 4 23 19 45 36 48 36 50 37 101 77 22 18 53 42 68 53 16 11 45
34 65 50 21 17 50 39 65 50 53 38 171 130 190 147 11 10 23 18 26 18 4 0 18
10 32 23 13 12 39 33 58 47 18 14 47 36 65 50 18 14 47 36 65 50 77 58 219
167 276 212 22 18 53 42 68 53 53 38 171 130 190 147 11 10 23 18 26 18 4 0
18 9 31 21 50 42 68 57 204 159 77 58 145 110 151 115 6 6 24 20 40 33 60 46
233 178 260 197 15 11 44 34 65 50 20 17 49 39 65 50 15 11 44 34 65 50 124
99 119 93 96 117 -7 7 -58 81 -113 163 -342 511 -490 731 -494 735 -3 3 -25
37 -50 75 -25 39 -47 72 -50 75 -3 3 -25 37 -50 75 -25 39 -47 72 -50 75 -3 3
-19 26 -35 52 -17 27 -33 48 -37 48 -5 0 -8 4 -8 9 0 7 -140 223 -154 238 -2
2 -9 -9 -17 -25z"/>
<path d="M94 3733 c4 -14 14 -114 22 -222 8 -108 19 -239 24 -291 5 -52 17
-178 25 -280 9 -102 20 -230 25 -285 5 -55 16 -183 25 -285 8 -102 20 -232 25
-290 6 -58 17 -190 26 -295 8 -104 19 -217 22 -250 l7 -60 44 75 c24 41 64
107 88 146 23 40 43 75 43 78 0 4 16 30 35 59 19 28 35 55 35 59 0 4 16 32 35
62 19 30 35 59 35 65 0 5 3 11 8 13 4 2 14 17 23 33 9 17 40 71 69 120 29 50
60 104 69 120 9 17 19 32 23 33 5 2 8 8 8 13 0 6 16 35 35 65 19 30 35 57 35
61 0 3 18 34 40 69 22 35 40 66 40 69 0 3 17 34 38 68 81 130 142 236 142 247
0 5 4 10 9 10 5 0 11 8 15 18 3 9 9 22 12 29 3 6 -16 26 -43 44 -26 18 -54 39
-61 46 -7 7 -17 13 -21 13 -4 0 -16 8 -27 18 -11 9 -53 39 -94 67 -41 27 -87
58 -101 70 -48 37 -83 61 -170 119 -24 16 -46 32 -49 35 -3 4 -18 15 -35 25
-16 11 -34 23 -40 28 -5 4 -93 67 -195 138 -102 71 -196 139 -210 150 -34 27
-43 25 -36 -7z"/>
<path d="M4869 3677 c-14 -12 -38 -31 -53 -42 -55 -39 -275 -209 -300 -230 -6
-5 -74 -57 -151 -115 -77 -58 -151 -115 -165 -127 -14 -13 -28 -23 -32 -23 -3
0 -13 -6 -20 -13 -7 -7 -38 -31 -68 -55 -30 -23 -59 -45 -65 -50 -5 -4 -28
-21 -50 -37 -54 -41 -73 -56 -103 -82 -14 -13 -28 -23 -32 -23 -3 0 -15 -8
-26 -18 -19 -17 -137 -109 -190 -147 -15 -11 -44 -33 -65 -50 -20 -16 -49 -39
-65 -50 -15 -11 -46 -35 -68 -53 -51 -40 -53 -41 -101 -77 -22 -17 -42 -32
-45 -35 -3 -3 -32 -25 -65 -50 -33 -25 -62 -47 -65 -50 -3 -3 -32 -25 -65 -50
-33 -25 -65 -49 -72 -55 -18 -15 -31 -25 -98 -75 -67 -50 -72 -54 -135 -104
-25 -20 -50 -39 -55 -44 -104 -77 -93 -69 -155 -118 -63 -50 -68 -54 -135
-104 -67 -50 -80 -60 -98 -75 -7 -5 -39 -30 -72 -55 -33 -25 -62 -47 -65 -50
-3 -3 -32 -25 -65 -50 -33 -25 -62 -47 -65 -50 -3 -3 -23 -18 -45 -35 -48 -35
-49 -36 -101 -77 -22 -18 -56 -44 -74 -58 -18 -14 -47 -36 -65 -50 -18 -14
-47 -36 -65 -50 -18 -14 -43 -33 -54 -42 -20 -16 61 -17 1505 -18 l1526 0 6
68 c3 37 13 150 22 252 8 102 20 232 25 290 5 58 16 186 25 285 8 99 19 227
25 285 6 58 17 188 25 290 8 102 19 232 25 290 10 110 32 368 49 577 6 67 13
134 17 148 8 31 -3 31 -37 2z"/>
<path d="M290 655 l0 -265 2195 0 2195 0 0 265 0 265 -2195 0 -2195 0 0 -265z"/>
</g>
</svg>
